<svg width="24" height="24" viewBox="0 0 24 24" fill="none" xmlns="http://www.w3.org/2000/svg">
<path d="M16.0001 8H8.00012V16H16.0001V8Z" stroke="#016450" stroke-width="1.5" stroke-linecap="round" stroke-linejoin="round"/>
<path d="M5.00012 22C6.65012 22 8.00012 20.65 8.00012 19V16H5.00012C3.35012 16 2.00012 17.35 2.00012 19C2.00012 20.65 3.35012 22 5.00012 22Z" stroke="#016450" stroke-width="1.5" stroke-linecap="round" stroke-linejoin="round"/>
<path d="M5.00012 8H8.00012V5C8.00012 3.35 6.65012 2 5.00012 2C3.35012 2 2.00012 3.35 2.00012 5C2.00012 6.65 3.35012 8 5.00012 8Z" stroke="#016450" stroke-width="1.5" stroke-linecap="round" stroke-linejoin="round"/>
<path d="M16.0001 8H19.0001C20.6501 8 22.0001 6.65 22.0001 5C22.0001 3.35 20.6501 2 19.0001 2C17.3501 2 16.0001 3.35 16.0001 5V8Z" stroke="#016450" stroke-width="1.5" stroke-linecap="round" stroke-linejoin="round"/>
<path d="M19.0001 22C20.6501 22 22.0001 20.65 22.0001 19C22.0001 17.35 20.6501 16 19.0001 16H16.0001V19C16.0001 20.65 17.3501 22 19.0001 22Z" stroke="#016450" stroke-width="1.5" stroke-linecap="round" stroke-linejoin="round"/>
</svg>
