<svg width="24" height="24" viewBox="0 0 24 24" fill="none" xmlns="http://www.w3.org/2000/svg">
<path d="M8.672 14.3298C8.672 15.6198 9.662 16.6598 10.892 16.6598H13.402C14.472 16.6598 15.342 15.7498 15.342 14.6298C15.342 13.4098 14.812 12.9798 14.022 12.6998L9.992 11.2998C9.202 11.0198 8.672 10.5898 8.672 9.36984C8.672 8.24984 9.542 7.33984 10.612 7.33984H13.122C14.352 7.33984 15.342 8.37984 15.342 9.66984" stroke="#016450" stroke-width="1.5" stroke-linecap="round" stroke-linejoin="round"/>
<path d="M12.0001 6V18" stroke="#016450" stroke-width="1.5" stroke-linecap="round" stroke-linejoin="round"/>
<path d="M12.0001 22C17.523 22 22.0001 17.5228 22.0001 12C22.0001 6.47715 17.523 2 12.0001 2C6.47727 2 2.00012 6.47715 2.00012 12C2.00012 17.5228 6.47727 22 12.0001 22Z" stroke="#016450" stroke-width="1.5" stroke-linecap="round" stroke-linejoin="round"/>
</svg>
