<svg width="96" height="46" viewBox="0 0 96 46" fill="none" xmlns="http://www.w3.org/2000/svg">
<g clip-path="url(#clip0_1278_946)">
<path d="M53.3357 29.1158C52.8318 31.612 50.0607 35.0651 44.8126 35.0651C39.3964 35.0651 35.072 30.9879 35.072 24.4977C35.072 18.6316 39.3965 14.2632 44.9806 14.2632C50.0188 14.2632 52.7898 17.5499 52.7898 20.4206C52.7898 21.7519 52.0901 22.4592 50.8165 22.8752L39.1865 26.6611C40.1522 30.2391 42.6854 32.4025 46.1142 32.4025C47.3646 32.4587 48.6036 32.1444 49.673 31.4997C50.7424 30.855 51.5936 29.9092 52.1181 28.783C52.496 28.2005 53.4616 28.3115 53.3357 29.1158ZM38.7247 23.1664C38.7147 23.8773 38.7709 24.5876 38.8926 25.2882L48.2554 21.9599C48.5644 21.8653 48.8321 21.67 49.015 21.4056C49.198 21.1413 49.2854 20.8235 49.2631 20.5038C49.2631 18.6316 47.2478 15.5945 44.3648 15.5945C40.95 15.5945 38.7247 18.9228 38.7247 23.1664Z" fill="#016450"/>
<path d="M72.0192 17.4667C72.0192 18.5484 71.5155 19.4221 70.3399 19.4221C68.1566 19.4221 69.2062 16.5098 66.6031 16.5098C64.2939 16.5098 63.0343 19.1309 63.0343 22.2511V31.7368C63.0343 33.1929 64.7977 33.2346 64.7977 33.9835V34.1499C64.7977 34.4827 64.5039 34.6491 63.9581 34.6491H58.7518C58.206 34.6491 57.9121 34.4827 57.9121 34.1499V33.9835C57.9121 33.2346 59.4656 33.1929 59.4656 31.7368V19.0892C59.4656 17.5083 57.7861 17.4667 57.7861 16.6762V16.593C57.7861 16.3018 58.0381 16.0522 58.4159 15.8442L61.6068 14.4574C62.4045 14.0829 62.6985 14.4157 62.6985 15.0398V18.3681C63.6221 15.7055 65.5535 14.291 68.1566 14.291C70.7597 14.291 72.0192 15.7193 72.0192 17.4667Z" fill="#016450"/>
<path d="M95.993 15.1786V15.3033C95.993 16.1354 94.9014 16.0938 94.1037 17.8827L86.1684 35.2177C84.531 38.8788 82.5996 43.4553 78.4711 43.4553C75.3222 43.4553 73.3068 41.3751 73.3068 39.7525C73.2879 39.5364 73.3154 39.3186 73.3877 39.1138C73.46 38.909 73.5754 38.7217 73.7263 38.5644C73.8771 38.4071 74.06 38.2833 74.2627 38.2012C74.4654 38.1191 74.6834 38.0807 74.9022 38.0884C77.0855 38.0884 76.4977 41.9991 79.1008 41.9991C80.9062 41.9991 82.7536 39.0869 84.2231 35.4257L76.1688 17.8412C75.3291 16.0938 74.1535 16.1354 74.1535 15.3033V15.1786C74.1535 14.8457 74.4474 14.6793 74.7833 14.6793H80.2414C80.3135 14.6716 80.3865 14.6787 80.4557 14.7C80.525 14.7213 80.589 14.7564 80.6441 14.8032C80.6991 14.8499 80.7439 14.9073 80.7758 14.9719C80.8076 15.0364 80.8258 15.1068 80.8293 15.1786V15.3033C80.8293 16.1354 79.3178 16.0938 80.1295 17.8827L86.1754 31.9865L92.1793 18.2156C93.103 16.0938 90.5839 16.1354 90.5839 15.3033V15.1786C90.5839 14.8873 90.8358 14.6793 91.2137 14.6793H95.4122C95.7621 14.6793 95.993 14.8457 95.993 15.1786Z" fill="#016450"/>
<path d="M8.99191 45.7504C8.99191 45.8336 8.9079 45.8751 8.78195 45.8751H7.32648C7.20052 45.8751 7.11652 45.8336 7.11652 45.7504C7.11652 45.5493 7.5644 45.5493 7.32648 45.1679L5.75202 43.0114C5.66354 43.0187 5.57459 43.0187 5.48611 43.0114H4.22651V45.1332C4.22651 45.5077 4.63943 45.5146 4.63943 45.7157C4.63943 45.7989 4.55542 45.8405 4.42947 45.8405H3.10691C2.98095 45.8405 2.89703 45.7989 2.89703 45.7157C2.89703 45.5146 3.27485 45.5077 3.27485 45.1332V39.2047C3.27485 38.8302 2.89703 38.8233 2.89703 38.6222C2.89703 38.539 2.98095 38.4974 3.10691 38.4974H5.25522C7.0536 38.4974 8.41807 39.1908 8.42506 40.7856C8.41876 41.2819 8.23885 41.7606 7.91596 42.14C7.59307 42.5194 7.1473 42.7759 6.65474 42.8658L8.33418 45.1679C8.58609 45.5632 8.99191 45.5493 8.99191 45.7504ZM7.45247 40.9382C7.45247 39.5514 6.38178 38.9412 5.20619 38.9412H4.50643C4.31749 38.9412 4.23351 39.0729 4.23351 39.2879V42.1239C4.23351 42.4637 4.39446 42.6093 4.67436 42.6093H5.37412C6.58471 42.6093 7.42446 41.9852 7.42446 40.9382H7.45247Z" fill="#FF6500"/>
<path d="M14.9049 44.5092C14.7727 44.954 14.4943 45.3423 14.114 45.6124C13.7336 45.8825 13.2731 46.0189 12.8056 46C12.4664 45.9984 12.1312 45.9271 11.8211 45.7907C11.5111 45.6543 11.2329 45.4558 11.0041 45.2076C10.7753 44.9594 10.6009 44.6669 10.4918 44.3486C10.3828 44.0303 10.3414 43.6931 10.3704 43.3581C10.3563 43.0271 10.4099 42.6968 10.528 42.3869C10.6462 42.0769 10.8264 41.7939 11.0578 41.5548C11.2893 41.3157 11.5672 41.1256 11.8748 40.9958C12.1824 40.866 12.5133 40.7992 12.8476 40.7995C13.078 40.7725 13.3114 40.791 13.5346 40.8539C13.7577 40.9168 13.966 41.0229 14.1475 41.166C14.3291 41.3092 14.4802 41.4865 14.5921 41.6878C14.7041 41.8891 14.7748 42.1104 14.8 42.3389C14.8041 42.4825 14.7563 42.6229 14.6652 42.7348C14.5741 42.8467 14.4457 42.9227 14.3031 42.9491L11.3991 43.899C11.4726 44.3006 11.6858 44.6641 12.0015 44.9262C12.3172 45.1884 12.7156 45.3328 13.1275 45.3344C13.4411 45.3489 13.7519 45.2701 14.02 45.1082C14.2881 44.9464 14.5012 44.7088 14.632 44.426C14.695 44.2596 14.9399 44.315 14.9049 44.5092ZM11.2521 43.0253C11.2514 43.2018 11.2655 43.3781 11.2942 43.5523L13.6383 42.7203C13.7152 42.697 13.7818 42.6487 13.8275 42.5833C13.8732 42.5179 13.8953 42.4391 13.8903 42.3597C13.8649 42.0437 13.7272 41.7469 13.5017 41.5221C13.2761 41.2974 12.9774 41.1593 12.6587 41.1324C11.791 41.1324 11.2521 41.9644 11.2521 43.0253Z" fill="#FF6500"/>
<path d="M21.6226 45.7365C21.6226 45.896 21.3427 45.9584 20.9228 45.9584C20.503 45.9584 20.223 45.8405 20.16 45.265C19.9959 45.5061 19.7683 45.6983 19.5019 45.8205C19.2355 45.9427 18.9404 45.9904 18.6486 45.9584C17.494 45.9584 16.6963 45.3829 16.6963 44.3844C16.6963 43.3859 17.522 42.845 18.6136 42.845C19.082 42.8215 19.5428 42.9697 19.9081 43.2611V42.9837C19.7892 41.7564 19.4533 41.0908 18.6136 41.0908C17.522 41.0908 17.6899 42.2765 17.1651 42.2765C17.1117 42.2816 17.0578 42.2752 17.0072 42.2577C16.9566 42.2402 16.9104 42.212 16.8718 42.1751C16.8332 42.1381 16.8032 42.0934 16.7837 42.0439C16.7643 41.9943 16.7559 41.9412 16.7592 41.8881C16.7592 41.3403 17.459 40.7579 18.6136 40.7579C19.9081 40.7579 20.7129 41.5761 20.8179 42.949L21.0277 45.0292C21.0977 45.7088 21.6226 45.4799 21.6226 45.7365ZM20.0481 44.5231L20.0061 44.0515C19.9452 43.7993 19.7955 43.5769 19.5838 43.4243C19.3721 43.2718 19.1124 43.1991 18.8515 43.2195C18.699 43.2039 18.5449 43.2203 18.3993 43.2676C18.2536 43.315 18.1197 43.3922 18.0062 43.4942C17.8926 43.5963 17.8021 43.7208 17.7403 43.8599C17.6786 43.9989 17.6471 44.1493 17.6479 44.3012C17.6315 44.4757 17.6517 44.6517 17.7073 44.8181C17.7629 44.9845 17.8527 45.1377 17.9711 45.268C18.0894 45.3983 18.2338 45.5029 18.3949 45.5752C18.5561 45.6475 18.7306 45.6859 18.9075 45.688C19.0623 45.6954 19.2168 45.6699 19.3609 45.6135C19.505 45.5571 19.6354 45.471 19.7433 45.3608C19.8512 45.2506 19.9342 45.1189 19.9867 44.9745C20.0393 44.83 20.0602 44.6761 20.0481 44.5231Z" fill="#FF6500"/>
<path d="M23.1971 45.7573C23.1971 45.5493 23.5679 45.5562 23.5679 45.1956V39.3504C23.5679 38.9412 23.1971 38.8858 23.1971 38.7263C23.1971 38.6431 23.253 38.6153 23.344 38.5599L24.1627 38.1646C24.3727 38.0606 24.4916 38.1646 24.4916 38.3103V45.2442C24.4916 45.6048 24.8974 45.5978 24.8974 45.8058C24.8974 45.889 24.8135 45.9446 24.6875 45.9446H23.3999C23.274 45.896 23.1971 45.8405 23.1971 45.7573Z" fill="#FF6500"/>
<path d="M30.5655 45.7712C30.5655 45.5701 30.9574 45.5701 30.9574 45.1748V39.2672C30.9574 38.8789 30.5655 38.8649 30.5655 38.6777C30.5655 38.6014 30.6424 38.5599 30.7544 38.5599H35.2049C35.3728 38.5599 35.4358 38.6431 35.4708 38.7887L35.7227 39.8149C35.7227 39.9605 35.7227 40.0299 35.5968 40.0299H35.5407C35.2189 40.0299 34.967 38.9898 34.4211 38.9898H32.196C32.007 38.9898 31.902 39.0869 31.902 39.3365V41.9506H33.8124C34.2112 41.9506 34.1972 41.3335 34.4211 41.3335H34.4632C34.5471 41.3335 34.5961 41.3959 34.5961 41.5138V42.7896C34.5961 42.8936 34.5471 42.9699 34.4632 42.9699H34.4211C34.1972 42.9699 34.2112 42.3736 33.8124 42.3736H31.902V45.0709C31.8951 45.1261 31.9001 45.1822 31.9165 45.2354C31.933 45.2887 31.9607 45.3378 31.9977 45.3797C32.0347 45.4216 32.0802 45.4553 32.1312 45.4785C32.1823 45.5018 32.2378 45.5141 32.2939 45.5147H34.757C35.3168 45.5147 35.4568 44.4468 35.8627 44.4468H35.9256C36.0166 44.4468 36.0726 44.5369 36.0516 44.6548L35.7997 45.7018C35.7997 45.8613 35.6948 45.9446 35.5268 45.9446H30.8034C30.6845 45.896 30.5655 45.8544 30.5655 45.7712Z" fill="#FF6500"/>
<path d="M37.7241 44.8004C37.7217 44.7473 37.7309 44.6943 37.7513 44.6451C37.7716 44.5959 37.8024 44.5516 37.8416 44.5154C37.8809 44.4791 37.9277 44.4517 37.9786 44.435C38.0296 44.4184 38.0836 44.413 38.1369 44.419C38.7877 44.419 38.4518 45.688 39.8583 45.688C40.5581 45.688 41.0549 45.3621 41.0549 44.7727C41.0549 43.2403 37.843 44.2735 37.843 42.221C37.843 41.4236 38.6618 40.8342 39.8164 40.8342C41.1179 40.8342 41.8596 41.5276 41.8596 42.0615C41.8596 42.11 41.8498 42.1581 41.8307 42.2027C41.8115 42.2474 41.7834 42.2878 41.7481 42.3215C41.7129 42.3552 41.6711 42.3814 41.6253 42.3987C41.5795 42.416 41.5307 42.4239 41.4818 42.4221C40.887 42.4221 41.1459 41.1532 39.8583 41.1532C39.7266 41.1408 39.5938 41.1546 39.4676 41.1938C39.3414 41.233 39.2243 41.2968 39.1233 41.3814C39.0222 41.466 38.9393 41.5697 38.8793 41.6865C38.8193 41.8033 38.7834 41.9308 38.7737 42.0615C38.7737 43.5592 41.9786 42.54 41.9786 44.6202C41.9786 45.3968 41.1599 46.007 39.8793 46.007C38.5988 46.007 37.7241 45.2928 37.7241 44.8004Z" fill="#FF6500"/>
<path d="M44.3368 44.426V41.3196H43.637C43.6159 41.3207 43.5948 41.3172 43.5752 41.3095C43.5555 41.3018 43.5378 41.2899 43.5232 41.2748C43.5086 41.2596 43.4974 41.2416 43.4904 41.2218C43.4835 41.202 43.4811 41.1809 43.4831 41.1601V41.0561C43.4809 41.0355 43.4833 41.0147 43.4903 40.9952C43.4972 40.9757 43.5085 40.958 43.5233 40.9433C43.538 40.9287 43.5559 40.9175 43.5756 40.9107C43.5953 40.9038 43.6163 40.9014 43.637 40.9035H44.0149C44.5188 40.9035 44.7636 40.5083 44.8126 39.9119C44.8126 39.7802 44.8966 39.704 44.9945 39.704H45.0995C45.2255 39.704 45.2674 39.7802 45.2674 39.9119V40.9035H46.716C46.7575 40.9035 46.7974 40.9193 46.8274 40.9477C46.8574 40.9762 46.8751 41.015 46.8769 41.0561V41.1601C46.8769 41.2024 46.8599 41.2429 46.8298 41.2728C46.7996 41.3028 46.7587 41.3196 46.716 41.3196H45.2674V44.4399C45.2674 45.0084 45.5403 45.3135 45.9672 45.3135C46.0597 45.3241 46.1534 45.3162 46.2428 45.2904C46.3323 45.2646 46.4157 45.2214 46.488 45.1633C46.5603 45.1052 46.6202 45.0333 46.6641 44.9519C46.7081 44.8706 46.7352 44.7813 46.7439 44.6895C46.755 44.6533 46.7788 44.6222 46.8109 44.6017C46.843 44.5812 46.8813 44.5727 46.9192 44.5777C46.957 44.5827 46.9919 44.6008 47.0175 44.6289C47.0431 44.657 47.0577 44.6933 47.0589 44.7311C47.0581 44.9028 47.0223 45.0726 46.9537 45.2303C46.8851 45.388 46.7851 45.5304 46.6596 45.6489C46.5342 45.7674 46.3859 45.8596 46.2236 45.9199C46.0614 45.9803 45.8884 46.0075 45.7153 46C44.8826 46 44.3368 45.4869 44.3368 44.426Z" fill="#FF6500"/>
<path d="M53.5946 45.7365C53.5946 45.896 53.3147 45.9584 52.8948 45.9584C52.475 45.9584 52.1951 45.8405 52.1321 45.265C51.9679 45.5061 51.7403 45.6983 51.4739 45.8205C51.2075 45.9427 50.9124 45.9904 50.6206 45.9584C49.466 45.9584 48.6682 45.3829 48.6682 44.3844C48.6682 43.3859 49.4939 42.845 50.5856 42.845C51.054 42.8215 51.5148 42.9697 51.8802 43.2611V42.9837C51.7612 41.7564 51.4253 41.0908 50.5856 41.0908C49.4939 41.0908 49.6619 42.2765 49.1371 42.2765C49.0837 42.2816 49.0299 42.2752 48.9792 42.2577C48.9286 42.2402 48.8824 42.212 48.8439 42.1751C48.8053 42.1381 48.7752 42.0934 48.7558 42.0439C48.7363 41.9943 48.728 41.9412 48.7313 41.8881C48.7313 41.3403 49.431 40.7579 50.5856 40.7579C51.8801 40.7579 52.6849 41.5761 52.7898 42.949L52.9998 45.0292C53.0768 45.7088 53.5946 45.4799 53.5946 45.7365ZM52.0201 44.5231L51.9782 44.0515C51.9173 43.7993 51.7675 43.5769 51.5558 43.4243C51.3442 43.2718 51.0845 43.1991 50.8235 43.2195C50.6711 43.2039 50.517 43.2203 50.3713 43.2676C50.2257 43.315 50.0917 43.3922 49.9781 43.4942C49.8646 43.5963 49.774 43.7208 49.7123 43.8599C49.6506 43.9989 49.6192 44.1493 49.62 44.3012C49.6035 44.4757 49.6237 44.6517 49.6793 44.8181C49.735 44.9845 49.8248 45.1377 49.9431 45.268C50.0615 45.3983 50.2057 45.5029 50.3669 45.5752C50.5281 45.6475 50.7026 45.6859 50.8795 45.688C51.0343 45.6954 51.1889 45.6699 51.333 45.6135C51.4771 45.5571 51.6074 45.471 51.7153 45.3608C51.8232 45.2506 51.9061 45.1189 51.9587 44.9745C52.0112 44.83 52.0322 44.6761 52.0201 44.5231Z" fill="#FF6500"/>
<path d="M55.6659 44.426V41.3196H54.9661C54.9447 41.3206 54.9234 41.3171 54.9034 41.3094C54.8834 41.3017 54.8652 41.2901 54.8501 41.275C54.8349 41.26 54.8231 41.242 54.8154 41.2222C54.8077 41.2024 54.8042 41.1813 54.8052 41.1601V41.0561C54.8041 41.0351 54.8075 41.0143 54.8153 40.9948C54.8231 40.9753 54.8351 40.9577 54.8503 40.9432C54.8656 40.9288 54.8839 40.9177 54.9039 40.9108C54.9239 40.904 54.945 40.9015 54.9661 40.9035H55.344C55.8478 40.9035 56.0857 40.5083 56.1417 39.9119C56.1417 39.7802 56.2257 39.704 56.3167 39.704H56.4216C56.5476 39.704 56.5896 39.7802 56.5896 39.9119V40.9035H58.038C58.0789 40.9035 58.1181 40.9196 58.147 40.9482C58.1758 40.9768 58.1921 41.0156 58.1921 41.0561V41.1601C58.193 41.1807 58.1897 41.2013 58.1824 41.2206C58.1751 41.2399 58.1639 41.2575 58.1495 41.2724C58.1351 41.2873 58.1178 41.2992 58.0986 41.3073C58.0795 41.3154 58.0589 41.3196 58.038 41.3196H56.5896V44.4399C56.5896 45.0084 56.8624 45.3135 57.2473 45.3135C57.3398 45.3241 57.4335 45.3162 57.523 45.2904C57.6124 45.2646 57.6958 45.2214 57.7681 45.1633C57.8405 45.1052 57.9003 45.0333 57.9443 44.9519C57.9882 44.8706 58.0153 44.7813 58.024 44.6895C58.0351 44.6533 58.0589 44.6222 58.091 44.6017C58.1231 44.5812 58.1615 44.5727 58.1994 44.5777C58.2373 44.5827 58.2721 44.6008 58.2976 44.6289C58.3232 44.657 58.3379 44.6933 58.339 44.7311C58.3382 44.9028 58.3024 45.0726 58.2338 45.2303C58.1652 45.388 58.0652 45.5304 57.9397 45.6489C57.8143 45.7674 57.666 45.8596 57.5037 45.9199C57.3415 45.9803 57.1686 46.0075 56.9954 46C56.2117 46 55.6659 45.4869 55.6659 44.426Z" fill="#FF6500"/>
<path d="M64.5108 44.5092C64.3786 44.954 64.1003 45.3423 63.7199 45.6124C63.3396 45.8825 62.8791 46.0189 62.4115 46C62.0723 45.9984 61.7371 45.9271 61.4271 45.7907C61.117 45.6543 60.8388 45.4558 60.61 45.2076C60.3813 44.9594 60.2068 44.6669 60.0978 44.3486C59.9887 44.0303 59.9474 43.6931 59.9764 43.3581C59.9622 43.0271 60.0159 42.6968 60.134 42.3869C60.2521 42.0769 60.4323 41.7939 60.6638 41.5548C60.8952 41.3157 61.1731 41.1256 61.4807 40.9958C61.7883 40.866 62.1192 40.7992 62.4536 40.7995C62.6839 40.7725 62.9174 40.791 63.1405 40.8539C63.3636 40.9168 63.572 41.0229 63.7535 41.166C63.935 41.3092 64.0861 41.4865 64.1981 41.6878C64.3101 41.8891 64.3806 42.1104 64.4058 42.3389C64.41 42.4825 64.3622 42.6229 64.2711 42.7348C64.1801 42.8467 64.0516 42.9227 63.909 42.9491L61.005 43.899C61.0786 44.3006 61.2917 44.6641 61.6074 44.9262C61.9231 45.1884 62.3216 45.3328 62.7335 45.3344C63.0471 45.3489 63.3578 45.2701 63.6259 45.1082C63.894 44.9464 64.1071 44.7088 64.2379 44.426C64.2729 44.2596 64.5458 44.315 64.5108 44.5092ZM60.8581 43.0253C60.8573 43.2018 60.8714 43.3781 60.9001 43.5523L63.2443 42.7203C63.3211 42.697 63.3877 42.6487 63.4334 42.5833C63.4791 42.5179 63.5013 42.4391 63.4962 42.3597C63.4708 42.0437 63.3331 41.7469 63.1075 41.5221C62.882 41.2974 62.5833 41.1593 62.2646 41.1324C61.4179 41.1324 60.8581 41.9644 60.8581 43.0253Z" fill="#FF6500"/>
<path d="M26.8917 10.8517H19.3903L23.6518 15.0745C24.5481 14.5864 25.3173 13.8979 25.8981 13.0637C26.3676 12.3953 26.7047 11.6446 26.8917 10.8517ZM3.03693 6.10352e-05H20.5309C21.7765 0.00242331 23.0094 0.248622 24.1586 0.724607C25.3079 1.20059 26.3509 1.89698 27.2277 2.77365C28.1118 3.64294 28.814 4.67653 29.2943 5.81522C29.7746 6.95391 30.0236 8.17528 30.0267 9.40943C30.0244 11.3164 29.4334 13.1771 28.3333 14.7417C27.6476 15.7172 26.7837 16.5568 25.7861 17.2171L27.1856 18.6039C28.0821 19.476 28.7955 20.5153 29.2849 21.6618C29.7564 22.8012 29.9943 24.0221 29.9847 25.2536C29.9832 26.489 29.7351 27.7119 29.2548 28.852C28.7744 29.992 28.0712 31.0267 27.1856 31.8964C26.308 32.7739 25.2638 33.4707 24.1133 33.9467C22.9628 34.4227 21.7287 34.6685 20.482 34.6699H2.98799V25.7182L5.93395 22.8059V31.7507H20.475C21.3338 31.7525 22.1844 31.5862 22.9782 31.2614C23.772 30.9365 24.4931 30.4595 25.1004 29.8577C26.3243 28.6407 27.0112 26.9925 27.0107 25.2744C27.0137 24.4246 26.8448 23.5829 26.5139 22.799C26.1921 22.02 25.7162 21.3127 25.1144 20.7188L15.8075 11.5035L-0.0280151 27.1951V23.0347L15.1988 7.94637H26.8638C26.5859 6.76691 25.9798 5.6883 25.1144 4.83302C24.5094 4.22928 23.7898 3.75003 22.9972 3.42278C22.2046 3.09554 21.3545 2.92675 20.4959 2.92618H5.95496V15.5321L3.00892 18.4514L3.03693 6.10352e-05Z" fill="#016450"/>
<path fill-rule="evenodd" clip-rule="evenodd" d="M19.4883 18.2363V21.1556H16.5424V18.2363H19.4883ZM19.4883 25.5309H16.5424V22.6117H19.4883V25.5309ZM12.1268 25.5309V22.6117H15.0728V25.5378L12.1268 25.5309ZM12.1268 18.2363H15.0728V21.1556H12.1268V18.2363Z" fill="#FF6500"/>
</g>
<defs>
<clipPath id="clip0_1278_946">
<rect width="96" height="46" fill="white"/>
</clipPath>
</defs>
</svg>
