<svg width="98" height="74" viewBox="0 0 98 74" fill="none" xmlns="http://www.w3.org/2000/svg">
<g clip-path="url(#clip0_94_18)">
<path d="M57.716 2.62996C62.9382 4.62561 67.6609 7.67031 71.172 11.4518C77.3091 18.0731 79.2081 26.4118 74.0996 34.2724C71.4885 38.293 68.1554 41.6744 65.8658 45.9438C64.2437 48.9739 62.953 53.5361 60.5447 56.0831C55.8714 61.0356 47.7315 57.5957 42.3511 55.6098C38.9933 54.3704 36.0212 52.4821 32.7425 51.0671C29.0632 49.4813 24.8301 48.5299 21.7888 45.7779C11.745 36.6828 15.8792 15.0723 25.112 6.67981C33.7068 -1.13689 46.792 -1.54675 57.716 2.62996Z" fill="#FFD63B"/>
<path d="M86.4034 61.6601C79.9988 61.6601 74.8068 56.5374 74.8068 50.2181C74.8068 43.8988 79.9988 38.7761 86.4034 38.7761C92.808 38.7761 98 43.8988 98 50.2181C98 56.5374 92.808 61.6601 86.4034 61.6601Z" fill="#016450"/>
<path d="M0.00102972 63.6074L4.17477 61.2645L6.54928 65.3826L2.37553 67.7255L0.00102972 63.6074Z" fill="#016450"/>
<path d="M7.26456 45.7487H13.8665V52.2626H7.26456V45.7487Z" fill="#016450"/>
<path d="M20.5347 61.3353L29.8845 64.7786L26.3947 74.0038L17.0448 70.5605L20.5347 61.3353Z" fill="#016450"/>
<path d="M7.56128 8.85111C7.95196 10.149 7.79371 11.93 7.78877 13.2718C7.78877 14.0671 7.82833 16.1067 7.01236 16.658C5.05899 17.9803 5.16284 13.2962 5.16779 12.4423C5.17273 11.281 4.92547 8.94382 5.69198 7.98259C6.82444 6.57246 7.15083 8.08017 7.56128 8.85111Z" fill="#FF6500"/>
<path d="M3.14023 11.0858C4.45566 10.7004 6.26068 10.8565 7.62062 10.8614C8.4267 10.8614 10.4938 10.8224 11.0526 11.6274C12.3928 13.5548 7.64534 13.4523 6.77993 13.4474C5.60296 13.4426 3.23419 13.6865 2.25998 12.9302C0.830799 11.808 2.35888 11.4908 3.14023 11.0858Z" fill="#FF6500"/>
</g>
<defs>
<clipPath id="clip0_94_18">
<rect width="98" height="74" fill="white" transform="matrix(-1 0 0 1 98 0)"/>
</clipPath>
</defs>
</svg>
