<svg width="65" height="64" viewBox="0 0 65 64" fill="none" xmlns="http://www.w3.org/2000/svg">
<g clip-path="url(#clip0_92_3)">
<path d="M14.4713 58.9338C11.4317 56.4177 9.29519 52.3792 7.56487 49.0792C1.30531 37.1569 0.479393 21.5351 10.6858 11.5145C20.4585 1.9111 35.4979 2.90208 46.7615 9.38414C53.3439 13.1717 65.9727 25.1819 60.4705 34.1097C55.5161 42.1457 46.6486 33.1832 42.9787 28.7202C32.4034 15.8758 12.9559 21.3942 18.369 39.468C19.8591 44.4523 29.4655 50.7824 29.3349 55.2162C29.1733 60.4362 22.4699 62.1847 18.2793 61.0023C16.8654 60.6019 15.6065 59.8763 14.4713 58.9338Z" fill="#EF5F00"/>
</g>
<defs>
<clipPath id="clip0_92_3">
<rect width="59" height="56" fill="white" transform="translate(0.136841 7.36511) rotate(-6.22725)"/>
</clipPath>
</defs>
</svg>
