<svg width="51" height="52" viewBox="0 0 51 52" fill="none" xmlns="http://www.w3.org/2000/svg">
<g clip-path="url(#clip0_86_24)">
<path d="M0.290382 30.8838C-1.38263 39.7152 4.35661 46.9166 12.3683 50.3833C20.3576 53.8411 30.8474 51.2796 38.1344 47.1802C52.8426 38.9068 54.5425 24.5085 45.2783 11.3844C39.6598 3.42729 28.4274 -4.35404 18.8948 2.8561C13.5179 6.92471 9.02672 16.5426 11.5676 23.1025C13.245 27.4303 24.0078 34.0517 27.1346 27.4699C29.7425 21.9777 18.8456 21.2439 18.3848 16.1648C17.7228 8.84039 27.7519 8.17254 32.3057 10.3518C41.221 14.6226 42.478 30.3697 35.1821 36.644C29.832 41.2487 17.5349 41.4156 11.5452 37.6062C9.23249 36.1343 5.48835 26.8196 0.290382 30.8838Z" fill="#016450"/>
</g>
<defs>
<clipPath id="clip0_86_24">
<rect width="51" height="52" fill="white"/>
</clipPath>
</defs>
</svg>
