<svg version="1.1" id="Layer_1" xmlns="http://www.w3.org/2000/svg" xmlns:xlink="http://www.w3.org/1999/xlink" x="0px" y="0px"
	 width="100%" viewBox="0 0 765 326" enable-background="new 0 0 765 326" xml:space="preserve">
<path fill="#000000" opacity="1.000000" stroke="none" 
	d="
M715.000000,327.000000 
	C476.666656,327.000000 238.833328,327.000000 1.000000,327.000000 
	C1.000000,218.333328 1.000000,109.666664 1.000000,1.000000 
	C256.000000,1.000000 511.000000,1.000000 766.000000,1.000000 
	C766.000000,109.666664 766.000000,218.333328 766.000000,327.000000 
	C749.166687,327.000000 732.333313,327.000000 715.000000,327.000000 
M115.995895,142.989655 
	C115.995895,142.989655 116.064285,142.968628 115.871124,142.487274 
	C115.588676,142.299469 115.306221,142.111664 115.012604,142.001740 
	C115.012604,142.001740 115.069038,141.945236 114.805489,141.319046 
	C109.824684,133.172729 102.092499,129.797424 92.882401,128.365082 
	C92.720551,128.123413 92.495811,127.981071 91.831230,127.323776 
	C86.292839,124.918892 80.954903,121.304794 75.176636,120.346939 
	C60.679962,117.943825 48.691113,121.479553 40.168221,136.297562 
	C39.775146,137.470032 39.382072,138.642487 38.378559,140.145721 
	C37.351696,143.169769 36.244434,146.169342 35.314472,149.222900 
	C33.288757,155.874390 33.334450,162.514725 36.000320,168.984604 
	C37.174629,171.834549 38.050434,175.361420 40.236050,177.128723 
	C45.224155,181.162125 48.322365,188.070984 56.172581,188.193420 
	C57.570980,188.215225 59.911602,189.637100 60.156513,190.771149 
	C61.066162,194.983124 64.420197,195.744507 67.531715,197.091110 
	C69.590080,197.981949 71.487030,199.686264 73.590363,199.947800 
	C79.282639,200.655624 85.199158,201.741653 90.735306,200.855988 
	C95.442558,200.102905 100.423431,197.934067 103.230362,193.044769 
	C103.665192,192.287338 105.535622,191.919800 106.653305,192.063416 
	C111.654121,192.706024 114.463531,189.766434 116.407547,185.965805 
	C118.000427,182.851669 118.888580,179.377060 120.824059,175.711716 
	C121.439529,172.765686 122.384689,169.844254 122.606529,166.868881 
	C123.191223,159.026611 124.574768,150.879303 117.014450,144.481018 
	C116.964508,144.308685 116.914574,144.136368 116.870399,143.455154 
	C116.593109,143.280182 116.315826,143.105209 115.995895,142.989655 
M215.026779,170.014999 
	C215.023590,161.439133 215.071442,152.862656 214.965530,144.288055 
	C214.948456,142.906723 214.246185,141.533844 212.955536,140.010040 
	C208.003387,140.057556 203.051239,140.105072 197.227615,140.328049 
	C197.153839,153.925201 197.065704,167.522354 197.049637,181.119568 
	C197.048859,181.783722 197.679276,182.448639 198.026535,182.989639 
	C198.026535,182.989639 197.903137,182.977402 198.289978,183.780975 
	C211.339218,183.852158 224.388428,183.933044 237.437759,183.958984 
	C237.957458,183.960022 238.478195,183.439041 239.675583,182.639160 
	C239.778732,179.165359 239.881882,175.691544 240.476578,172.077789 
	C240.645615,172.098648 240.814667,172.119522 241.251785,172.781464 
	C243.246536,178.008743 247.606934,180.580811 252.537857,181.956131 
	C262.599304,184.762451 272.872925,184.879410 282.836578,181.803741 
	C286.321899,180.727859 289.890411,178.154678 292.166199,175.273987 
	C297.928802,167.979614 297.754486,159.263779 293.938446,151.508011 
	C290.285217,144.083176 283.349426,140.445999 274.550903,140.860764 
	C269.870209,141.081406 265.129669,140.487167 260.442139,140.006973 
	C252.075104,139.149902 241.544022,146.009964 240.146820,154.110977 
	C239.302811,159.004562 239.780762,164.126144 239.510284,169.737579 
	C239.571167,170.022659 239.663681,170.306473 239.675003,170.593506 
	C239.678726,170.688110 239.472946,170.877350 239.362381,170.877777 
	C231.265533,170.909378 223.168640,170.926300 215.026779,170.014999 
M607.446106,183.888260 
	C620.478821,183.925461 633.511475,183.979584 646.544128,183.960510 
	C647.382629,183.959274 648.220337,183.392731 649.752014,182.600143 
	C649.520691,179.037552 649.289368,175.474976 648.614319,171.160522 
	C640.373230,170.967453 632.132080,170.774384 623.954834,170.584641 
	C623.954834,170.584641 623.952393,170.520752 623.992615,169.500717 
	C623.994385,160.796875 624.067810,152.091705 623.907410,143.390839 
	C623.887329,142.302032 622.631836,141.236008 621.097046,140.037292 
	C616.770020,140.339447 612.442932,140.641602 607.615295,140.399734 
	C607.465332,154.622971 607.315369,168.846222 607.446106,183.888260 
M551.397949,183.854782 
	C563.932495,183.902802 576.467041,183.964569 589.001587,183.961105 
	C589.679016,183.960907 590.356384,183.413788 591.814270,183.028214 
	C596.543091,182.600754 600.104492,180.526703 602.421631,176.191193 
	C606.272705,168.985504 602.503784,163.757996 597.843933,158.843262 
	C598.700134,157.918747 599.668274,157.365448 599.747559,156.705414 
	C600.164551,153.232193 601.522217,149.223038 600.285095,146.390793 
	C599.150085,143.792480 596.856445,139.676651 591.623108,140.250458 
	C578.432617,140.215866 565.242126,140.181290 551.218079,140.400375 
	C551.198486,154.604294 551.178833,168.808197 551.397949,183.854782 
M142.287338,183.778610 
	C154.677109,183.850647 167.066864,183.933029 179.456726,183.958527 
	C179.974258,183.959579 180.492874,183.429977 181.815506,183.034882 
	C187.125519,183.750519 190.798630,180.269150 192.427551,176.500656 
	C193.927063,173.031540 194.351379,167.117798 192.344299,164.564804 
	C189.123779,160.468292 189.616180,157.909454 191.479156,153.833160 
	C194.152802,147.983047 188.607834,140.780533 181.575546,140.249023 
	C168.395615,140.220474 155.215668,140.191910 141.182297,140.365570 
	C141.120590,153.954010 141.044510,167.542435 141.040848,181.130890 
	C141.040665,181.791183 141.676376,182.451645 142.026672,182.986450 
	C142.026672,182.986450 141.901230,182.974182 142.287338,183.778610 
M704.240723,140.336929 
	C704.212891,154.542740 704.185059,168.748535 704.346802,183.814148 
	C718.377014,183.874298 732.407288,183.943436 746.437561,183.959335 
	C746.958069,183.959930 747.479187,183.441376 748.671265,182.654739 
	C748.420959,179.686508 748.170715,176.718277 747.338623,173.177246 
	C738.614502,173.129150 729.890320,173.081055 721.045105,172.194199 
	C721.042908,170.500519 721.040710,168.806854 721.966553,167.031555 
	C727.776306,167.024506 733.588623,167.115341 739.394653,166.964584 
	C741.884521,166.899948 744.361450,166.333084 746.965454,165.144211 
	C746.668396,162.739853 746.371399,160.335480 745.551514,157.245163 
	C737.386108,157.134796 729.220642,157.024429 721.014221,156.063828 
	C721.023865,154.078430 721.033508,152.093018 721.970337,150.027512 
	C728.772034,150.020081 735.575317,150.090866 742.374634,149.959610 
	C744.535522,149.917892 746.685974,149.338409 748.964722,148.154221 
	C748.670105,145.747620 748.375488,143.341034 747.559814,140.245728 
	C733.406738,140.210297 719.253601,140.174866 704.240723,140.336929 
M697.183289,140.039017 
	C692.836487,140.345917 688.489624,140.652817 683.660339,140.377289 
	C683.384216,149.577133 683.108093,158.776978 682.609680,168.649933 
	C676.883911,175.798721 668.894653,173.400055 667.017456,167.009888 
	C667.023743,159.416046 667.092346,151.821289 666.978821,144.229233 
	C666.958313,142.859436 666.188599,141.500854 664.870056,140.007202 
	C659.974304,140.059448 655.078613,140.111679 649.281982,140.253250 
	C649.188232,146.693771 648.992737,153.135178 649.047546,159.574432 
	C649.071655,162.404007 649.605652,165.229233 649.971008,168.834167 
	C652.497498,178.131821 656.469849,182.564331 663.247620,182.845596 
	C670.332581,183.139648 677.441101,183.137283 684.531433,182.955826 
	C692.659973,182.747772 697.892273,178.197510 699.999146,169.175613 
	C699.982910,160.634720 700.037292,152.092422 699.866394,143.554626 
	C699.843567,142.412155 698.681274,141.292480 697.183289,140.039017 
M482.155151,162.729446 
	C483.522949,167.465347 485.466431,172.123749 486.116913,176.956207 
	C486.985840,183.411224 490.366699,185.067978 496.124664,184.016098 
	C496.927216,183.869492 497.935242,184.277390 498.574371,183.927917 
	C499.828308,183.242325 501.578033,182.411240 501.918671,181.278351 
	C504.110291,173.989746 505.976044,166.603134 508.817871,159.376190 
	C508.892853,161.532166 508.952362,163.688797 509.045776,165.843979 
	C509.293274,171.553680 509.555481,177.262726 510.344635,183.670181 
	C514.897095,183.725815 519.449585,183.781448 524.809692,183.531998 
	C524.874939,169.992065 524.980408,156.451965 524.916382,142.912659 
	C524.912048,141.991608 523.634644,141.076584 522.091003,140.039215 
	C516.489624,140.360489 510.870178,141.098740 505.293274,140.856659 
	C501.566711,140.694885 500.190125,142.512039 499.430634,145.318939 
	C497.948883,150.795151 496.730316,156.342560 495.402740,161.860504 
	C492.833954,156.191513 491.254639,150.578903 489.949463,144.903275 
	C489.054688,141.012390 487.074738,139.504929 482.964844,139.944870 
	C477.060211,140.576920 471.096558,140.657089 464.735291,140.301132 
	C464.490204,140.843307 464.032837,141.384842 464.031158,141.927780 
	C463.990875,154.919876 463.986694,167.912155 464.034027,180.904205 
	C464.036591,181.604523 464.545898,182.302994 465.366760,183.684311 
	C470.244598,183.510742 475.122437,183.337158 480.772614,182.716278 
	C480.846130,178.606155 480.814331,174.490509 481.030090,170.387863 
	C481.174591,167.640030 481.670410,164.910660 482.155151,162.729446 
M397.987671,179.631866 
	C402.985107,177.361404 404.573090,173.198410 404.381744,167.819321 
	C406.084076,176.917709 412.432220,181.481415 420.376709,182.752075 
	C427.638336,183.913498 435.238556,183.201660 442.677460,182.953186 
	C453.510315,182.591354 462.674652,172.296509 462.000000,161.599350 
	C461.196014,148.851318 452.422791,140.855591 439.615417,140.898209 
	C434.909119,140.913864 430.149475,139.768936 425.506104,140.183472 
	C419.221710,140.744522 413.115997,141.775894 408.539520,147.507828 
	C404.280731,152.841873 404.248871,158.841965 403.806305,165.527542 
	C394.619324,153.430344 380.173096,158.441849 368.877838,153.690811 
	C372.044678,149.228256 375.765381,149.220963 381.824554,152.364334 
	C388.308167,155.727890 395.083405,153.643005 401.916626,153.640701 
	C400.838989,147.014496 397.798981,143.583084 390.834625,142.212296 
	C384.730621,141.010818 378.193665,142.007156 372.090637,140.802826 
	C365.979309,139.596817 360.894470,141.543411 355.681946,143.696625 
	C351.202545,145.547012 349.591156,151.183167 350.761902,155.722137 
	C352.885651,163.955872 359.201416,165.016968 366.001068,166.068817 
	C372.028076,167.001129 378.596161,165.850479 384.025696,169.907379 
	C381.009827,175.081512 374.149780,175.248703 371.924500,172.019073 
	C369.420624,168.385025 366.909088,168.993774 363.434845,169.606735 
	C359.727570,170.260818 355.675781,170.432114 352.081696,169.555008 
	C350.583313,169.189346 350.092438,165.421463 348.742889,163.478821 
	C347.750671,162.050476 346.288574,160.499420 344.719940,160.004623 
	C339.972626,158.507172 335.110046,157.297485 330.219391,156.354050 
	C325.366302,155.417831 320.182373,155.764175 316.035248,151.868347 
	C319.277435,151.037643 323.201996,149.832443 325.466522,151.260162 
	C332.706024,155.824478 340.254608,153.216644 347.657074,153.995514 
	C347.763367,148.174530 343.887207,143.520630 337.567688,142.063141 
	C327.605988,139.765656 317.368866,139.723984 307.506805,141.612732 
	C301.206909,142.819290 297.387115,144.677734 297.953705,156.835129 
	C298.159027,161.240494 301.277771,163.863800 307.864746,164.923203 
	C314.318604,165.961197 320.784729,166.929367 327.217743,168.082779 
	C328.174805,168.254349 329.440125,169.127563 329.702820,169.950623 
	C329.897125,170.559494 328.855865,171.813324 328.086792,172.436234 
	C324.528473,175.318146 321.176453,174.197083 317.924377,171.726425 
	C317.059357,171.069260 316.074738,170.120956 315.125092,170.097000 
	C309.184113,169.947144 303.237518,170.021317 297.241516,170.021317 
	C298.195038,177.744934 299.305969,179.427750 305.808197,181.370102 
	C309.142029,182.365952 312.704803,182.634293 316.180939,183.107773 
	C328.768890,184.822357 340.969635,184.918900 350.472839,174.515671 
	C354.641235,180.827682 360.894928,182.260788 368.007660,183.186371 
	C378.182281,184.510406 387.887482,183.964691 397.987671,179.631866 
z"/>
<path fill="#082CC5" opacity="1.000000" stroke="none" 
	d="
M397.690125,179.879639 
	C387.887482,183.964691 378.182281,184.510406 368.007660,183.186371 
	C360.894928,182.260788 354.641235,180.827682 350.472839,174.515671 
	C340.969635,184.918900 328.768890,184.822357 316.180939,183.107773 
	C312.704803,182.634293 309.142029,182.365952 305.808197,181.370102 
	C299.305969,179.427750 298.195038,177.744934 297.241516,170.021317 
	C303.237518,170.021317 309.184113,169.947144 315.125092,170.097000 
	C316.074738,170.120956 317.059357,171.069260 317.924377,171.726425 
	C321.176453,174.197083 324.528473,175.318146 328.086792,172.436234 
	C328.855865,171.813324 329.897125,170.559494 329.702820,169.950623 
	C329.440125,169.127563 328.174805,168.254349 327.217743,168.082779 
	C320.784729,166.929367 314.318604,165.961197 307.864746,164.923203 
	C301.277771,163.863800 298.159027,161.240494 297.953705,156.835129 
	C297.387115,144.677734 301.206909,142.819290 307.506805,141.612732 
	C317.368866,139.723984 327.605988,139.765656 337.567688,142.063141 
	C343.887207,143.520630 347.763367,148.174530 347.657074,153.995514 
	C340.254608,153.216644 332.706024,155.824478 325.466522,151.260162 
	C323.201996,149.832443 319.277435,151.037643 316.035248,151.868347 
	C320.182373,155.764175 325.366302,155.417831 330.219391,156.354050 
	C335.110046,157.297485 339.972626,158.507172 344.719940,160.004623 
	C346.288574,160.499420 347.750671,162.050476 348.742889,163.478821 
	C350.092438,165.421463 350.583313,169.189346 352.081696,169.555008 
	C355.675781,170.432114 359.727570,170.260818 363.434845,169.606735 
	C366.909088,168.993774 369.420624,168.385025 371.924500,172.019073 
	C374.149780,175.248703 381.009827,175.081512 384.025696,169.907379 
	C378.596161,165.850479 372.028076,167.001129 366.001068,166.068817 
	C359.201416,165.016968 352.885651,163.955872 350.761902,155.722137 
	C349.591156,151.183167 351.202545,145.547012 355.681946,143.696625 
	C360.894470,141.543411 365.979309,139.596817 372.090637,140.802826 
	C378.193665,142.007156 384.730621,141.010818 390.834625,142.212296 
	C397.798981,143.583084 400.838989,147.014496 401.916626,153.640701 
	C395.083405,153.643005 388.308167,155.727890 381.824554,152.364334 
	C375.765381,149.220963 372.044678,149.228256 368.877838,153.690811 
	C380.173096,158.441849 394.619324,153.430344 403.806305,165.527542 
	C404.248871,158.841965 404.280731,152.841873 408.539520,147.507828 
	C413.115997,141.775894 419.221710,140.744522 425.506104,140.183472 
	C430.149475,139.768936 434.909119,140.913864 439.615417,140.898209 
	C452.422791,140.855591 461.196014,148.851318 462.000000,161.599350 
	C462.674652,172.296509 453.510315,182.591354 442.677460,182.953186 
	C435.238556,183.201660 427.638336,183.913498 420.376709,182.752075 
	C412.432220,181.481415 406.084076,176.917709 404.381744,167.819321 
	C404.573090,173.198410 402.985107,177.361404 397.690125,179.879639 
M423.929657,169.278549 
	C426.823730,172.331390 429.615570,175.030426 434.568481,173.226379 
	C441.692017,170.631729 443.410004,168.150497 442.985168,159.218719 
	C442.687744,152.965897 435.117554,148.340378 429.377167,150.904007 
	C422.091797,154.157608 420.538330,158.764221 423.929657,169.278549 
z"/>
<path fill="#082CC5" opacity="1.000000" stroke="none" 
	d="
M465.158081,140.972839 
	C471.096558,140.657089 477.060211,140.576920 482.964844,139.944870 
	C487.074738,139.504929 489.054688,141.012390 489.949463,144.903275 
	C491.254639,150.578903 492.833954,156.191513 495.402740,161.860504 
	C496.730316,156.342560 497.948883,150.795151 499.430634,145.318939 
	C500.190125,142.512039 501.566711,140.694885 505.293274,140.856659 
	C510.870178,141.098740 516.489624,140.360489 522.708130,140.466232 
	C523.550903,142.660629 523.963989,144.427170 523.971924,146.195526 
	C524.028442,158.742508 524.002014,171.289856 524.002014,183.837097 
	C519.449585,183.781448 514.897095,183.725815 510.127533,182.855988 
	C509.910431,173.142975 509.910431,164.244171 509.910431,155.345367 
	C509.497314,155.303436 509.084229,155.261505 508.671112,155.219589 
	C508.430328,156.562637 508.189575,157.905670 507.948792,159.248718 
	C505.976044,166.603134 504.110291,173.989746 501.918671,181.278351 
	C501.578033,182.411240 499.828308,183.242325 498.574371,183.927917 
	C497.935242,184.277390 496.927216,183.869492 496.124664,184.016098 
	C490.366699,185.067978 486.985840,183.411224 486.116913,176.956207 
	C485.466431,172.123749 483.522949,167.465347 482.137787,161.974579 
	C481.834747,160.665588 481.549072,160.111465 481.263428,159.557343 
	C480.765045,160.475586 479.842041,161.390976 479.835846,162.312531 
	C479.789246,169.262192 479.922943,176.213074 480.000275,183.163574 
	C475.122437,183.337158 470.244598,183.510742 465.167389,182.878784 
	C465.031372,168.373123 465.094727,154.672974 465.158081,140.972839 
z"/>
<path fill="#062AC5" opacity="1.000000" stroke="none" 
	d="
M182.091934,140.946167 
	C188.607834,140.780533 194.152802,147.983047 191.479156,153.833160 
	C189.616180,157.909454 189.123779,160.468292 192.344299,164.564804 
	C194.351379,167.117798 193.927063,173.031540 192.427551,176.500656 
	C190.798630,180.269150 187.125519,183.750519 180.948563,183.015411 
	C167.354828,182.988693 154.628021,182.981430 141.901230,182.974182 
	C141.901230,182.974182 142.026672,182.986450 142.021790,182.573425 
	C142.070923,168.451630 142.124924,154.742874 142.636017,141.024689 
	C156.092712,140.992249 169.092316,140.969208 182.091934,140.946167 
M166.490402,166.997391 
	C163.751740,166.997391 161.013077,166.997391 158.090515,166.997391 
	C158.237350,169.703903 158.347153,171.728088 158.469009,173.974075 
	C162.735443,173.974075 166.936722,174.420959 170.961914,173.773376 
	C172.797089,173.478134 174.284592,171.021805 175.929779,169.545670 
	C174.256668,168.696457 172.643661,167.674438 170.887634,167.063644 
	C169.854126,166.704178 168.593567,166.997604 166.490402,166.997391 
M160.769913,150.008682 
	C155.418060,150.830902 158.886002,154.287537 158.219376,157.119675 
	C163.890045,156.222275 169.624969,159.099136 174.705429,152.970642 
	C172.689117,151.893188 171.012192,150.492172 169.131271,150.118835 
	C166.740295,149.644257 164.184006,150.002594 160.769913,150.008682 
z"/>
<path fill="#062AC5" opacity="1.000000" stroke="none" 
	d="
M592.132141,140.966324 
	C596.856445,139.676651 599.150085,143.792480 600.285095,146.390793 
	C601.522217,149.223038 600.164551,153.232193 599.747559,156.705414 
	C599.668274,157.365448 598.700134,157.918747 597.843933,158.843262 
	C602.503784,163.757996 606.272705,168.985504 602.421631,176.191193 
	C600.104492,180.526703 596.543091,182.600754 590.959473,182.989960 
	C577.431396,182.919296 564.758179,182.886902 552.059570,182.395630 
	C552.083191,168.313522 552.132141,154.690308 552.635864,141.048630 
	C566.104492,141.008881 579.118347,140.987610 592.132141,140.966324 
M585.178162,168.832443 
	C579.688660,167.969696 574.199097,167.106949 568.343323,166.186630 
	C568.343323,169.541122 568.343323,171.570343 568.343323,173.989700 
	C571.974243,173.989700 575.289124,173.765381 578.559998,174.048874 
	C582.291626,174.372299 584.605591,173.004395 585.178162,168.832443 
M579.711792,156.944183 
	C581.193970,155.782303 582.676086,154.620407 584.612244,153.102661 
	C579.270508,147.820389 573.526917,150.866684 568.299683,150.042648 
	C568.299683,152.696106 568.299683,154.609619 568.299683,156.980316 
	C572.003967,156.980316 575.428101,156.980316 579.711792,156.944183 
z"/>
<path fill="#082CC5" opacity="1.000000" stroke="none" 
	d="
M239.664719,169.145279 
	C239.780762,164.126144 239.302811,159.004562 240.146820,154.110977 
	C241.544022,146.009964 252.075104,139.149902 260.442139,140.006973 
	C265.129669,140.487167 269.870209,141.081406 274.550903,140.860764 
	C283.349426,140.445999 290.285217,144.083176 293.938446,151.508011 
	C297.754486,159.263779 297.928802,167.979614 292.166199,175.273987 
	C289.890411,178.154678 286.321899,180.727859 282.836578,181.803741 
	C272.872925,184.879410 262.599304,184.762451 252.537857,181.956131 
	C247.606934,180.580811 243.246536,178.008743 241.185120,172.116104 
	C240.633881,170.682251 240.149307,169.913773 239.664719,169.145279 
M259.490936,170.919830 
	C264.008026,174.131439 268.509674,174.945877 273.592102,171.797119 
	C278.484070,168.766342 276.540863,164.299210 277.106049,160.128021 
	C277.723663,155.570084 275.359161,153.103836 272.335327,151.342499 
	C268.557678,149.142090 264.473846,149.470032 260.975037,152.624023 
	C256.320099,156.820175 255.759293,161.863831 259.490936,170.919830 
z"/>
<path fill="#082CC5" opacity="1.000000" stroke="none" 
	d="
M650.182861,140.163925 
	C655.078613,140.111679 659.974304,140.059448 665.355957,140.529327 
	C665.870422,147.824738 665.809753,154.600235 665.978699,161.370010 
	C666.033447,163.565582 666.689575,165.746140 667.070618,167.933563 
	C668.894653,173.400055 676.883911,175.798721 682.988281,167.993988 
	C683.625549,158.545273 683.884216,149.752487 684.142822,140.959717 
	C688.489624,140.652817 692.836487,140.345917 697.810181,140.463898 
	C698.669434,145.286316 698.919495,149.682983 699.129639,154.081573 
	C699.385193,159.428879 699.606995,164.777786 699.843506,170.126007 
	C697.892273,178.197510 692.659973,182.747772 684.531433,182.955826 
	C677.441101,183.137283 670.332581,183.139648 663.247620,182.845596 
	C656.469849,182.564331 652.497498,178.131821 650.022705,167.979233 
	C650.110596,158.137512 650.146729,149.150711 650.182861,140.163925 
z"/>
<path fill="#062AC5" opacity="1.000000" stroke="none" 
	d="
M721.038513,167.113159 
	C721.040710,168.806854 721.042908,170.500519 721.415710,172.857697 
	C730.497681,173.597504 739.209045,173.673782 747.920410,173.750061 
	C748.170715,176.718277 748.420959,179.686508 747.871033,182.837112 
	C733.080383,182.958359 719.090027,182.897217 705.091370,182.377960 
	C705.131714,168.306335 705.180359,154.692871 705.680786,141.057922 
	C720.115295,141.002441 734.098083,140.968430 748.080811,140.934433 
	C748.375488,143.341034 748.670105,145.747620 748.444824,148.576996 
	C742.161316,148.998245 736.393860,148.871399 730.635498,149.044525 
	C727.430298,149.140869 724.240112,149.736816 721.043091,150.107620 
	C721.033508,152.093018 721.023865,154.078430 721.354370,156.745010 
	C729.821167,157.594498 737.947815,157.762802 746.074402,157.931107 
	C746.371399,160.335480 746.668396,162.739853 746.446533,165.567703 
	C741.153870,165.990112 736.374512,165.847992 731.608032,166.034500 
	C728.076172,166.172699 724.561096,166.738083 721.038513,167.113159 
z"/>
<path fill="#082CC5" opacity="1.000000" stroke="none" 
	d="
M120.089142,176.062256 
	C118.888580,179.377060 118.000427,182.851669 116.407547,185.965805 
	C114.463531,189.766434 111.654121,192.706024 106.653305,192.063416 
	C105.535622,191.919800 103.665192,192.287338 103.230362,193.044769 
	C100.423431,197.934067 95.442558,200.102905 90.735306,200.855988 
	C85.199158,201.741653 79.282639,200.655624 73.590363,199.947800 
	C71.487030,199.686264 69.590080,197.981949 67.531715,197.091110 
	C64.420197,195.744507 61.066162,194.983124 60.156513,190.771149 
	C59.911602,189.637100 57.570980,188.215225 56.172581,188.193420 
	C48.322365,188.070984 45.224155,181.162125 40.236050,177.128723 
	C38.050434,175.361420 37.174629,171.834549 36.000320,168.984604 
	C33.334450,162.514725 33.288757,155.874390 35.314472,149.222900 
	C36.244434,146.169342 37.351696,143.169769 38.734955,140.365662 
	C41.694443,147.090256 43.116230,154.234589 49.251297,159.171021 
	C50.245392,159.694351 51.021053,159.991623 51.826721,160.477356 
	C51.856731,160.665802 51.955708,161.034409 51.892746,161.387772 
	C51.617424,162.369293 51.532215,163.084076 51.172600,163.611908 
	C48.290394,167.842407 49.045685,170.706726 53.802223,173.100616 
	C55.975182,174.194244 57.472359,176.740829 59.114162,178.760040 
	C65.330162,186.404968 73.284416,191.350296 83.083771,191.765335 
	C90.286163,192.070389 97.711685,191.079559 102.007805,183.616333 
	C102.631927,182.532089 103.960487,181.853333 105.355377,180.986908 
	C108.743973,179.579041 111.761337,178.213867 114.728333,176.746826 
	C116.405357,175.917633 117.999565,174.920944 119.706665,174.347321 
	C119.884560,175.150711 119.986855,175.606491 120.089142,176.062256 
z"/>
<path fill="#062AC5" opacity="1.000000" stroke="none" 
	d="
M239.985031,172.217743 
	C239.881882,175.691544 239.778732,179.165359 238.872314,182.829086 
	C224.680405,183.005142 211.291763,182.991272 197.903137,182.977417 
	C197.903137,182.977402 198.026535,182.989639 198.016891,182.575531 
	C198.037857,168.158478 198.068481,154.155533 198.099091,140.152588 
	C203.051239,140.105072 208.003387,140.057556 213.428802,140.540359 
	C213.981537,151.035965 214.060989,161.001236 214.336136,171.343903 
	C223.016235,171.886780 231.500626,172.052261 239.985031,172.217743 
z"/>
<path fill="#062AC5" opacity="1.000000" stroke="none" 
	d="
M608.115906,140.943756 
	C612.442932,140.641602 616.770020,140.339447 621.709717,140.466064 
	C622.548462,146.916290 622.713074,152.940887 623.023132,158.958008 
	C623.222046,162.817963 623.635254,166.666885 623.952393,170.520752 
	C623.952393,170.520752 623.954834,170.584641 624.030396,171.040161 
	C632.423340,171.634598 640.740723,171.773483 649.058044,171.912384 
	C649.289368,175.474976 649.520691,179.037552 648.936218,182.782547 
	C634.770630,182.937729 621.420776,182.910522 608.012390,182.425064 
	C608.007812,168.292465 608.061829,154.618118 608.115906,140.943756 
z"/>
<path fill="#062AC5" opacity="1.000000" stroke="none" 
	d="
M40.760784,136.023056 
	C48.691113,121.479553 60.679962,117.943825 75.176636,120.346939 
	C80.954903,121.304794 86.292839,124.918892 91.697960,127.881195 
	C84.615074,128.175049 79.985687,131.222351 77.679558,138.156494 
	C76.581650,139.871643 75.758369,141.407043 74.752655,143.009369 
	C74.570229,143.076279 74.200195,143.195053 73.952057,142.963165 
	C72.121361,141.163666 70.538811,139.596054 68.782700,137.732834 
	C64.083443,135.694550 59.615314,132.763260 55.015965,132.540436 
	C50.331478,132.313461 45.517860,134.751755 40.760784,136.023056 
z"/>
<path fill="#010794" opacity="1.000000" stroke="none" 
	d="
M40.464500,136.160309 
	C45.517860,134.751755 50.331478,132.313461 55.015965,132.540436 
	C59.615314,132.763260 64.083443,135.694550 68.412140,137.802155 
	C52.842430,142.322495 49.000710,146.483780 49.032864,158.944977 
	C43.116230,154.234589 41.694443,147.090256 39.040173,140.200287 
	C39.382072,138.642487 39.775146,137.470032 40.464500,136.160309 
z"/>
<path fill="#010794" opacity="1.000000" stroke="none" 
	d="
M77.954185,137.976730 
	C79.985687,131.222351 84.615074,128.175049 91.886444,128.188339 
	C92.495811,127.981071 92.720551,128.123413 92.972275,128.952347 
	C93.767212,132.628403 94.472267,135.717194 94.825912,139.003998 
	C88.673599,142.759293 83.346153,139.933044 77.954185,137.976730 
z"/>
<path fill="#062AC5" opacity="1.000000" stroke="none" 
	d="
M116.864647,143.964066 
	C116.914574,144.136368 116.964508,144.308685 117.056274,145.138489 
	C117.677170,147.604431 118.438927,149.377777 118.794998,151.229156 
	C119.420563,154.481689 122.537132,157.678162 118.941284,160.866058 
	C115.849258,155.924088 114.056503,150.776978 109.305527,147.051712 
	C106.131607,144.563019 103.696304,141.857224 99.332802,141.707977 
	C98.248352,141.670898 97.222481,139.921127 96.560211,138.939026 
	C100.965561,139.282806 105.001785,139.497406 108.986420,140.070618 
	C111.060921,140.369049 113.044434,141.299988 115.069038,141.945236 
	C115.069038,141.945236 115.012604,142.001740 115.161514,142.165527 
	C115.525749,142.584824 115.777039,142.797928 116.064285,142.968628 
	C116.064285,142.968628 115.995895,142.989655 116.122169,143.157379 
	C116.409660,143.580704 116.615059,143.793686 116.864647,143.964066 
z"/>
<path fill="#082CC5" opacity="1.000000" stroke="none" 
	d="
M114.937263,141.632141 
	C113.044434,141.299988 111.060921,140.369049 108.986420,140.070618 
	C105.001785,139.497406 100.965561,139.282806 96.310837,138.905228 
	C95.506393,138.862671 95.341858,138.834335 95.177322,138.805984 
	C94.472267,135.717194 93.767212,132.628403 93.039047,129.146454 
	C102.092499,129.797424 109.824684,133.172729 114.937263,141.632141 
z"/>
<path fill="#DFE4F2" opacity="1.000000" stroke="none" 
	d="
M119.209801,161.102798 
	C122.537132,157.678162 119.420563,154.481689 118.794998,151.229156 
	C118.438927,149.377777 117.677170,147.604431 117.117508,145.400528 
	C124.574768,150.879303 123.191223,159.026611 122.606529,166.868881 
	C122.384689,169.844254 121.439529,172.765686 120.456604,175.886993 
	C119.986855,175.606491 119.884560,175.150711 119.786026,173.981491 
	C119.558060,169.518051 119.326340,165.768051 119.143036,161.791687 
	C119.191460,161.565308 119.209801,161.102798 119.209801,161.102798 
z"/>
<path fill="#697EDB" opacity="1.000000" stroke="none" 
	d="
M524.405884,183.684540 
	C524.002014,171.289856 524.028442,158.742508 523.971924,146.195526 
	C523.963989,144.427170 523.550903,142.660629 523.137329,140.526001 
	C523.634644,141.076584 524.912048,141.991608 524.916382,142.912659 
	C524.980408,156.451965 524.874939,169.992065 524.405884,183.684540 
z"/>
<path fill="#F6F6FC" opacity="1.000000" stroke="none" 
	d="
M705.099609,182.836090 
	C719.090027,182.897217 733.080383,182.958359 747.535400,183.092117 
	C747.479187,183.441376 746.958069,183.959930 746.437561,183.959335 
	C732.407288,183.943436 718.377014,183.874298 704.490601,183.378891 
	C704.634338,182.943634 705.099609,182.836090 705.099609,182.836090 
z"/>
<path fill="#697EDB" opacity="1.000000" stroke="none" 
	d="
M705.091370,182.377960 
	C705.099609,182.836090 704.634338,182.943634 704.395813,182.948990 
	C704.185059,168.748535 704.212891,154.542740 704.695190,140.474091 
	C705.149658,140.611237 705.229004,141.079391 705.229004,141.079391 
	C705.180359,154.692871 705.131714,168.306335 705.091370,182.377960 
z"/>
<path fill="#BBC5EF" opacity="1.000000" stroke="none" 
	d="
M142.178925,141.034103 
	C142.124924,154.742874 142.070923,168.451630 142.016449,182.636215 
	C141.676376,182.451645 141.040665,181.791183 141.040848,181.130890 
	C141.044510,167.542435 141.120590,153.954010 141.621857,140.485870 
	C142.061432,140.606186 142.178925,141.034103 142.178925,141.034103 
z"/>
<path fill="#BBC5EF" opacity="1.000000" stroke="none" 
	d="
M197.663361,140.240326 
	C198.068481,154.155533 198.037857,168.158478 198.011505,182.637299 
	C197.679276,182.448639 197.048859,181.783722 197.049637,181.119568 
	C197.065704,167.522354 197.153839,153.925201 197.663361,140.240326 
z"/>
<path fill="#DFE4F2" opacity="1.000000" stroke="none" 
	d="
M464.946686,140.636993 
	C465.094727,154.672974 465.031372,168.373123 464.893677,182.537796 
	C464.545898,182.302994 464.036591,181.604523 464.034027,180.904205 
	C463.986694,167.912155 463.990875,154.919876 464.031158,141.927780 
	C464.032837,141.384842 464.490204,140.843307 464.946686,140.636993 
z"/>
<path fill="#697EDB" opacity="1.000000" stroke="none" 
	d="
M552.181030,141.067093 
	C552.132141,154.690308 552.083191,168.313522 551.832825,182.462448 
	C551.631409,182.988159 551.159241,183.012115 551.159241,183.012115 
	C551.178833,168.808197 551.198486,154.604294 551.658569,140.504761 
	C552.099060,140.609161 552.181030,141.067093 552.181030,141.067093 
z"/>
<path fill="#697EDB" opacity="1.000000" stroke="none" 
	d="
M607.865601,140.671753 
	C608.061829,154.618118 608.007812,168.292465 607.792664,182.504089 
	C607.631531,183.041367 607.165344,183.069458 607.165344,183.069458 
	C607.315369,168.846222 607.465332,154.622971 607.865601,140.671753 
z"/>
<path fill="#2242CA" opacity="1.000000" stroke="none" 
	d="
M705.680786,141.057922 
	C705.229004,141.079391 705.149658,140.611237 705.125122,140.375336 
	C719.253601,140.174866 733.406738,140.210297 747.820312,140.590088 
	C734.098083,140.968430 720.115295,141.002441 705.680786,141.057922 
z"/>
<path fill="#F6F6FC" opacity="1.000000" stroke="none" 
	d="
M607.305725,183.478851 
	C607.165344,183.069458 607.631531,183.041367 607.851257,182.962341 
	C621.420776,182.910522 634.770630,182.937729 648.589417,183.027054 
	C648.220337,183.392731 647.382629,183.959274 646.544128,183.960510 
	C633.511475,183.979584 620.478821,183.925461 607.305725,183.478851 
z"/>
<path fill="#F6F6FC" opacity="1.000000" stroke="none" 
	d="
M198.096558,183.379196 
	C211.291763,182.991272 224.680405,183.005142 238.533752,183.090149 
	C238.478195,183.439041 237.957458,183.960022 237.437759,183.958984 
	C224.388428,183.933044 211.339218,183.852158 198.096558,183.379196 
z"/>
<path fill="#2242CA" opacity="1.000000" stroke="none" 
	d="
M552.635864,141.048630 
	C552.181030,141.067093 552.099060,140.609161 552.075317,140.377930 
	C565.242126,140.181290 578.432617,140.215866 591.877625,140.608398 
	C579.118347,140.987610 566.104492,141.008881 552.635864,141.048630 
z"/>
<path fill="#2242CA" opacity="1.000000" stroke="none" 
	d="
M142.636017,141.024689 
	C142.178925,141.034103 142.061432,140.606186 142.048584,140.384766 
	C155.215668,140.191910 168.395615,140.220474 181.833740,140.597595 
	C169.092316,140.969208 156.092712,140.992249 142.636017,141.024689 
z"/>
<path fill="#F6F6FC" opacity="1.000000" stroke="none" 
	d="
M551.278564,183.433441 
	C551.159241,183.012115 551.631409,182.988159 551.858154,182.921341 
	C564.758179,182.886902 577.431396,182.919296 590.569214,183.036469 
	C590.356384,183.413788 589.679016,183.960907 589.001587,183.961105 
	C576.467041,183.964569 563.932495,183.902802 551.278564,183.433441 
z"/>
<path fill="#F6F6FC" opacity="1.000000" stroke="none" 
	d="
M142.094284,183.376404 
	C154.628021,182.981430 167.354828,182.988693 180.546295,183.071777 
	C180.492874,183.429977 179.974258,183.959579 179.456726,183.958527 
	C167.066864,183.933029 154.677109,183.850647 142.094284,183.376404 
z"/>
<path fill="#BBC5EF" opacity="1.000000" stroke="none" 
	d="
M508.383331,159.312454 
	C508.189575,157.905670 508.430328,156.562637 508.671112,155.219589 
	C509.084229,155.261505 509.497314,155.303436 509.910431,155.345367 
	C509.910431,164.244171 509.910431,173.142975 509.861145,182.506912 
	C509.555481,177.262726 509.293274,171.553680 509.045776,165.843979 
	C508.952362,163.688797 508.892853,161.532166 508.383331,159.312454 
z"/>
<path fill="#697EDB" opacity="1.000000" stroke="none" 
	d="
M699.921326,169.650818 
	C699.606995,164.777786 699.385193,159.428879 699.129639,154.081573 
	C698.919495,149.682983 698.669434,145.286316 698.241882,140.525513 
	C698.681274,141.292480 699.843567,142.412155 699.866394,143.554626 
	C700.037292,152.092422 699.982910,160.634720 699.921326,169.650818 
z"/>
<path fill="#697EDB" opacity="1.000000" stroke="none" 
	d="
M623.972534,170.010742 
	C623.635254,166.666885 623.222046,162.817963 623.023132,158.958008 
	C622.713074,152.940887 622.548462,146.916290 622.135498,140.527130 
	C622.631836,141.236008 623.887329,142.302032 623.907410,143.390839 
	C624.067810,152.091705 623.994385,160.796875 623.972534,170.010742 
z"/>
<path fill="#DFE4F2" opacity="1.000000" stroke="none" 
	d="
M214.140442,170.966522 
	C214.060989,161.001236 213.981537,151.035965 213.881378,140.613861 
	C214.246185,141.533844 214.948456,142.906723 214.965530,144.288055 
	C215.071442,152.862656 215.023590,161.439133 214.816330,170.475708 
	C214.605881,170.936401 214.140457,170.966522 214.140442,170.966522 
z"/>
<path fill="#BBC5EF" opacity="1.000000" stroke="none" 
	d="
M214.336151,171.343903 
	C214.140457,170.966522 214.605881,170.936401 214.838806,170.940399 
	C223.168640,170.926300 231.265533,170.909378 239.362381,170.877777 
	C239.472946,170.877350 239.678726,170.688110 239.675003,170.593506 
	C239.663681,170.306473 239.571167,170.022659 239.587494,169.441437 
	C240.149307,169.913773 240.633881,170.682251 241.051102,171.795563 
	C240.814667,172.119522 240.645615,172.098648 240.230804,172.147766 
	C231.500626,172.052261 223.016235,171.886780 214.336151,171.343903 
z"/>
<path fill="#697EDB" opacity="1.000000" stroke="none" 
	d="
M683.901611,140.668503 
	C683.884216,149.752487 683.625549,158.545273 683.099487,167.657440 
	C683.108093,158.776978 683.384216,149.577133 683.901611,140.668503 
z"/>
<path fill="#697EDB" opacity="1.000000" stroke="none" 
	d="
M667.044067,167.471725 
	C666.689575,165.746140 666.033447,163.565582 665.978699,161.370010 
	C665.809753,154.600235 665.870422,147.824738 665.803345,140.594269 
	C666.188599,141.500854 666.958313,142.859436 666.978821,144.229233 
	C667.092346,151.821289 667.023743,159.416046 667.044067,167.471725 
z"/>
<path fill="#F6F6FC" opacity="1.000000" stroke="none" 
	d="
M649.732422,140.208588 
	C650.146729,149.150711 650.110596,158.137512 649.991272,167.590363 
	C649.605652,165.229233 649.071655,162.404007 649.047546,159.574432 
	C648.992737,153.135178 649.188232,146.693771 649.732422,140.208588 
z"/>
<path fill="#2242CA" opacity="1.000000" stroke="none" 
	d="
M721.506714,150.067566 
	C724.240112,149.736816 727.430298,149.140869 730.635498,149.044525 
	C736.393860,148.871399 742.161316,148.998245 748.383057,149.002380 
	C746.685974,149.338409 744.535522,149.917892 742.374634,149.959610 
	C735.575317,150.090866 728.772034,150.020081 721.506714,150.067566 
z"/>
<path fill="#697EDB" opacity="1.000000" stroke="none" 
	d="
M747.629517,173.463654 
	C739.209045,173.673782 730.497681,173.597504 721.476257,173.277069 
	C729.890320,173.081055 738.614502,173.129150 747.629517,173.463654 
z"/>
<path fill="#2242CA" opacity="1.000000" stroke="none" 
	d="
M721.502563,167.072357 
	C724.561096,166.738083 728.076172,166.172699 731.608032,166.034500 
	C736.374512,165.847992 741.153870,165.990112 746.385986,165.992813 
	C744.361450,166.333084 741.884521,166.899948 739.394653,166.964584 
	C733.588623,167.115341 727.776306,167.024506 721.502563,167.072357 
z"/>
<path fill="#BBC5EF" opacity="1.000000" stroke="none" 
	d="
M648.836182,171.536453 
	C640.740723,171.773483 632.423340,171.634598 623.998535,171.038513 
	C632.132080,170.774384 640.373230,170.967453 648.836182,171.536453 
z"/>
<path fill="#F6F6FC" opacity="1.000000" stroke="none" 
	d="
M480.386444,182.939926 
	C479.922943,176.213074 479.789246,169.262192 479.835846,162.312531 
	C479.842041,161.390976 480.765045,160.475586 481.263428,159.557343 
	C481.549072,160.111465 481.834747,160.665588 482.064728,161.696365 
	C481.670410,164.910660 481.174591,167.640030 481.030090,170.387863 
	C480.814331,174.490509 480.846130,178.606155 480.386444,182.939926 
z"/>
<path fill="#2242CA" opacity="1.000000" stroke="none" 
	d="
M745.812988,157.588135 
	C737.947815,157.762802 729.821167,157.594498 721.374878,157.170135 
	C729.220642,157.024429 737.386108,157.134796 745.812988,157.588135 
z"/>
<path fill="#082CC5" opacity="1.000000" stroke="none" 
	d="
M115.967705,142.727951 
	C115.777039,142.797928 115.525749,142.584824 115.167099,142.126587 
	C115.306221,142.111664 115.588676,142.299469 115.967705,142.727951 
z"/>
<path fill="#082CC5" opacity="1.000000" stroke="none" 
	d="
M116.867523,143.709610 
	C116.615059,143.793686 116.409660,143.580704 116.143494,143.127670 
	C116.315826,143.105209 116.593109,143.280182 116.867523,143.709610 
z"/>
<path fill="#000000" opacity="1.000000" stroke="none" 
	d="
M423.649963,168.997650 
	C420.538330,158.764221 422.091797,154.157608 429.377167,150.904007 
	C435.117554,148.340378 442.687744,152.965897 442.985168,159.218719 
	C443.410004,168.150497 441.692017,170.631729 434.568481,173.226379 
	C429.615570,175.030426 426.823730,172.331390 423.649963,168.997650 
z"/>
<path fill="#000000" opacity="1.000000" stroke="none" 
	d="
M166.962769,166.997391 
	C168.593567,166.997604 169.854126,166.704178 170.887634,167.063644 
	C172.643661,167.674438 174.256668,168.696457 175.929779,169.545670 
	C174.284592,171.021805 172.797089,173.478134 170.961914,173.773376 
	C166.936722,174.420959 162.735443,173.974075 158.469009,173.974075 
	C158.347153,171.728088 158.237350,169.703903 158.090515,166.997391 
	C161.013077,166.997391 163.751740,166.997391 166.962769,166.997391 
z"/>
<path fill="#000000" opacity="1.000000" stroke="none" 
	d="
M161.234451,150.005249 
	C164.184006,150.002594 166.740295,149.644257 169.131271,150.118835 
	C171.012192,150.492172 172.689117,151.893188 174.705429,152.970642 
	C169.624969,159.099136 163.890045,156.222275 158.219376,157.119675 
	C158.886002,154.287537 155.418060,150.830902 161.234451,150.005249 
z"/>
<path fill="#000000" opacity="1.000000" stroke="none" 
	d="
M585.412842,169.133911 
	C584.605591,173.004395 582.291626,174.372299 578.559998,174.048874 
	C575.289124,173.765381 571.974243,173.989700 568.343323,173.989700 
	C568.343323,171.570343 568.343323,169.541122 568.343323,166.186630 
	C574.199097,167.106949 579.688660,167.969696 585.412842,169.133911 
z"/>
<path fill="#000000" opacity="1.000000" stroke="none" 
	d="
M579.281982,156.962250 
	C575.428101,156.980316 572.003967,156.980316 568.299683,156.980316 
	C568.299683,154.609619 568.299683,152.696106 568.299683,150.042648 
	C573.526917,150.866684 579.270508,147.820389 584.612244,153.102661 
	C582.676086,154.620407 581.193970,155.782303 579.281982,156.962250 
z"/>
<path fill="#000000" opacity="1.000000" stroke="none" 
	d="
M259.284912,170.579895 
	C255.759293,161.863831 256.320099,156.820175 260.975037,152.624023 
	C264.473846,149.470032 268.557678,149.142090 272.335327,151.342499 
	C275.359161,153.103836 277.723663,155.570084 277.106049,160.128021 
	C276.540863,164.299210 278.484070,168.766342 273.592102,171.797119 
	C268.509674,174.945877 264.008026,174.131439 259.284912,170.579895 
z"/>
<path fill="#02178B" opacity="1.000000" stroke="none" 
	d="
M104.963081,180.986954 
	C103.960487,181.853333 102.631927,182.532089 102.007805,183.616333 
	C97.711685,191.079559 90.286163,192.070389 83.083771,191.765335 
	C73.284416,191.350296 65.330162,186.404968 59.114162,178.760040 
	C57.472359,176.740829 55.975182,174.194244 53.802223,173.100616 
	C49.045685,170.706726 48.290394,167.842407 51.172600,163.611908 
	C51.532215,163.084076 51.617424,162.369293 52.287231,161.446884 
	C54.862762,161.465271 56.980854,161.777908 59.290825,162.321960 
	C59.653500,163.346252 59.824299,164.139130 59.990807,165.339447 
	C60.748569,175.097885 67.618523,178.758713 75.120895,181.417282 
	C86.468552,185.438522 94.466034,182.825531 99.497391,174.101700 
	C100.924324,174.062683 101.962006,174.031342 103.343994,174.003342 
	C104.147720,174.020432 104.607147,174.034195 105.057632,174.481674 
	C105.020157,176.939240 104.991623,178.963104 104.963081,180.986954 
z"/>
<path fill="#00047A" opacity="1.000000" stroke="none" 
	d="
M49.251297,159.171021 
	C49.000710,146.483780 52.842430,142.322495 68.585686,138.097748 
	C70.538811,139.596054 72.121361,141.163666 73.682693,143.185684 
	C72.118927,144.123871 70.576378,144.607651 68.764282,144.872375 
	C63.424469,144.065735 59.376823,146.009476 56.734531,150.201141 
	C54.749584,153.350037 53.418751,156.911240 51.796711,160.288895 
	C51.021053,159.991623 50.245392,159.694351 49.251297,159.171021 
z"/>
<path fill="#062AC5" opacity="1.000000" stroke="none" 
	d="
M105.355377,180.986908 
	C104.991623,178.963104 105.020157,176.939240 105.386765,174.338562 
	C112.807915,172.837341 114.749207,166.059204 119.094620,162.018066 
	C119.326340,165.768051 119.558060,169.518051 119.710426,173.633865 
	C117.999565,174.920944 116.405357,175.917633 114.728333,176.746826 
	C111.761337,178.213867 108.743973,179.579041 105.355377,180.986908 
z"/>
<path fill="#000865" opacity="1.000000" stroke="none" 
	d="
M51.826721,160.477356 
	C53.418751,156.911240 54.749584,153.350037 56.734531,150.201141 
	C59.376823,146.009476 63.424469,144.065735 68.723404,145.179657 
	C67.688881,147.307693 66.745979,149.479767 65.101814,150.403030 
	C60.370506,153.059906 61.036682,158.187027 59.098946,162.090530 
	C56.980854,161.777908 54.862762,161.465271 52.350189,161.093521 
	C51.955708,161.034409 51.856731,160.665802 51.826721,160.477356 
z"/>
<path fill="#1B5054" opacity="1.000000" stroke="none" 
	d="
M59.290825,162.321960 
	C61.036682,158.187027 60.370506,153.059906 65.101814,150.403030 
	C66.745979,149.479767 67.688881,147.307693 68.992950,145.398712 
	C70.576378,144.607651 72.118927,144.123871 73.930832,143.417572 
	C74.200195,143.195053 74.570229,143.076279 75.097153,143.147690 
	C78.734566,144.496704 81.845047,145.774292 85.028320,147.380051 
	C88.950447,152.473419 94.698967,156.324356 92.544235,163.976654 
	C90.268608,168.613022 87.632187,172.552490 82.483429,173.588501 
	C77.977715,174.495117 73.180077,176.382828 69.346909,171.699814 
	C69.114433,171.415817 67.820030,172.001038 66.756615,171.954895 
	C64.327362,169.462631 62.161228,167.197327 59.995094,164.932007 
	C59.824299,164.139130 59.653500,163.346252 59.290825,162.321960 
M82.548225,155.250183 
	C81.623344,154.919388 80.714127,154.367661 79.770538,154.300781 
	C77.311226,154.126434 74.554688,153.505371 72.485374,154.391083 
	C71.422058,154.846222 70.624817,158.674789 71.389084,160.031586 
	C72.678337,162.320358 75.039703,164.887360 77.422958,165.500916 
	C83.022392,166.942413 85.212784,162.843948 82.548225,155.250183 
z"/>
<path fill="#00047A" opacity="1.000000" stroke="none" 
	d="
M84.955536,147.051895 
	C81.845047,145.774292 78.734566,144.496704 75.279587,143.080780 
	C75.758369,141.407043 76.581650,139.871643 77.679558,138.156494 
	C83.346153,139.933044 88.673599,142.759293 94.825912,139.003998 
	C95.341858,138.834335 95.506393,138.862671 95.920303,138.924789 
	C97.222481,139.921127 98.248352,141.670898 99.332802,141.707977 
	C103.696304,141.857224 106.131607,144.563019 109.305527,147.051712 
	C114.056503,150.776978 115.849258,155.924088 118.941284,160.866058 
	C119.209801,161.102798 119.191460,161.565308 119.143036,161.791687 
	C114.749207,166.059204 112.807915,172.837341 105.395706,173.904846 
	C104.607147,174.034195 104.147720,174.020432 103.284523,173.680847 
	C102.126976,171.946442 101.373199,170.537857 100.423561,168.763260 
	C102.138321,167.831619 103.966034,167.384125 104.885056,166.219574 
	C106.525108,164.141312 108.852501,161.490570 108.609421,159.336868 
	C108.335144,156.906708 106.014153,153.909149 103.753250,152.656281 
	C97.769371,149.340378 97.591057,149.662170 97.013817,142.650696 
	C92.832657,144.176804 88.894096,145.614349 84.955536,147.051895 
z"/>
<path fill="#000865" opacity="1.000000" stroke="none" 
	d="
M85.028320,147.380051 
	C88.894096,145.614349 92.832657,144.176804 97.013817,142.650696 
	C97.591057,149.662170 97.769371,149.340378 103.753250,152.656281 
	C106.014153,153.909149 108.335144,156.906708 108.609421,159.336868 
	C108.852501,161.490570 106.525108,164.141312 104.885056,166.219574 
	C103.966034,167.384125 102.138321,167.831619 100.423561,168.763260 
	C101.373199,170.537857 102.126976,171.946442 102.940224,173.677521 
	C101.962006,174.031342 100.924324,174.062683 99.457100,174.060913 
	C99.027565,174.027786 98.949242,173.948669 98.961792,173.557373 
	C100.069305,168.002472 94.573776,167.153137 92.861107,163.827469 
	C94.698967,156.324356 88.950447,152.473419 85.028320,147.380051 
z"/>
<path fill="#000865" opacity="1.000000" stroke="none" 
	d="
M59.990807,165.339447 
	C62.161228,167.197327 64.327362,169.462631 66.831314,172.276474 
	C72.992447,180.678482 84.638710,182.176682 92.278297,176.362045 
	C94.073997,174.995331 96.703392,174.723953 98.949242,173.948669 
	C98.949242,173.948669 99.027565,174.027786 99.067856,174.068573 
	C94.466034,182.825531 86.468552,185.438522 75.120895,181.417282 
	C67.618523,178.758713 60.748569,175.097885 59.990807,165.339447 
z"/>
<path fill="#020B42" opacity="1.000000" stroke="none" 
	d="
M98.961792,173.557373 
	C96.703392,174.723953 94.073997,174.995331 92.278297,176.362045 
	C84.638710,182.176682 72.992447,180.678482 67.094437,172.503418 
	C67.820030,172.001038 69.114433,171.415817 69.346909,171.699814 
	C73.180077,176.382828 77.977715,174.495117 82.483429,173.588501 
	C87.632187,172.552490 90.268608,168.613022 92.544235,163.976654 
	C94.573776,167.153137 100.069305,168.002472 98.961792,173.557373 
z"/>
<path fill="#A08569" opacity="1.000000" stroke="none" 
	d="
M82.792854,155.486984 
	C85.212784,162.843948 83.022392,166.942413 77.422958,165.500916 
	C75.039703,164.887360 72.678337,162.320358 71.389084,160.031586 
	C70.624817,158.674789 71.422058,154.846222 72.485374,154.391083 
	C74.554688,153.505371 77.311226,154.126434 79.770538,154.300781 
	C80.714127,154.367661 81.623344,154.919388 82.792854,155.486984 
z"/>
</svg>