<svg width="90" height="91" viewBox="0 0 90 91" fill="none" xmlns="http://www.w3.org/2000/svg">
<g opacity="0.05" clip-path="url(#clip0_1035_2387)">
<path d="M63.7323 21.964C63.7482 19.4792 61.7431 17.4577 59.2586 17.4497C59.2506 17.4497 59.2426 17.4497 59.2347 17.4497C56.7662 17.4497 54.753 19.4472 54.745 21.924L54.7291 24.1851C51.5496 21.7403 47.6831 20.35 43.3692 20.35C32.7683 20.35 21.8079 29.5223 21.8079 44.8627C21.8079 58.8608 31.2824 70.2383 42.9378 70.2383C48.0026 70.2383 52.5881 68.105 56.143 64.5096C56.846 65.9398 57.7807 67.2581 58.9071 68.3926C61.4155 70.9094 64.643 72.2997 67.9982 72.2997C77.7124 72.2997 83.8636 65.5403 86.38 59.2044C90.2865 49.3769 90.9895 41.0915 88.6568 32.3507C88.6408 32.3028 88.6328 32.2548 88.6169 32.2069C85.0859 20.5018 77.1851 10.9221 66.3685 5.22537C55.5519 -0.471353 43.1775 -1.56595 31.5221 2.1493C20.4898 5.68079 11.2948 13.2631 5.65486 23.506C0.0148859 33.7569 -1.46301 45.5818 1.47681 56.7835C4.03317 66.4911 9.54533 74.8724 17.4221 81.0085C25.0033 86.921 34.4539 90.3166 44.0163 90.5803C44.0642 90.5803 44.1042 90.5803 44.1441 90.5803C46.5727 90.5803 48.5698 88.6468 48.6337 86.2099C48.7056 83.7251 46.7484 81.6637 44.2639 81.5918C28.2707 81.1523 14.2506 70.0066 10.1684 54.4904C7.8118 45.5179 9.0021 36.058 13.5317 27.8285C18.0532 19.607 25.4188 13.5268 34.2622 10.7144C43.6009 7.75014 53.5228 8.62902 62.1904 13.1912C70.8342 17.7454 77.1532 25.3916 79.9971 34.7397C81.8984 41.9385 80.756 49.0653 78.0399 55.8966C77.1532 58.1338 74.3971 63.3271 68.0062 63.3271C66.728 63.3271 65.7534 62.5441 65.29 62.0727C64.2036 60.9781 63.5485 59.3642 63.5565 57.7582L63.7323 21.964ZM42.9378 61.2578C37.0981 61.2578 30.7951 54.9938 30.7951 44.8627C30.7951 35.1391 37.186 29.3386 43.3692 29.3386C49.832 29.3386 54.3935 35.3389 54.6332 44.0238L54.6252 45.6697C54.2817 54.3466 49.177 61.2578 42.9378 61.2578Z" fill="#FF6500"/>
</g>
<defs>
<clipPath id="clip0_1035_2387">
<rect width="90" height="90.5882" fill="white"/>
</clipPath>
</defs>
</svg>
