<svg width="157" height="40" viewBox="0 0 157 40" fill="none" xmlns="http://www.w3.org/2000/svg">
<path d="M14 39H9L7 25.5L9 18L14 12L22 9.5L32.5 13.5L36 23L34.5 33.5L27 38H16.5L14 39Z" fill="white"/>
<path d="M22.8923 24.2858C22.8923 24.6838 23.2177 25.0275 23.6334 25.0275H25.0253C25.4229 25.0275 25.7664 24.7019 25.7664 24.2858V22.8929C25.7664 22.4949 25.441 22.1512 25.0253 22.1512H23.6334C23.2357 22.1512 22.8923 22.4768 22.8923 22.8929V24.2858Z" fill="#15c39a"/>
<path d="M20.3616 25.0094C20.7593 25.0094 21.1028 24.6838 21.1028 24.2677V22.8748C21.1028 22.4768 20.7774 22.1331 20.3616 22.1331H18.9698C18.5721 22.1331 18.2287 22.4587 18.2287 22.8748V24.2677C18.2287 24.6657 18.554 25.0094 18.9698 25.0094H20.3616Z" fill="#15c39a"/>
<path d="M23.6153 26.8003C23.2177 26.8003 22.8742 27.1259 22.8742 27.542V28.9168C22.8742 29.3148 23.1996 29.6585 23.6153 29.6585H25.0072C25.4048 29.6585 25.7483 29.3329 25.7483 28.9168V27.542C25.7483 27.144 25.4229 26.8003 25.0072 26.8003H23.6153Z" fill="#15c39a"/>
<path d="M21.0847 27.542C21.0847 27.144 20.7593 26.8003 20.3436 26.8003H18.9698C18.5721 26.8003 18.2287 27.1259 18.2287 27.542V28.9168C18.2287 29.3148 18.554 29.6585 18.9698 29.6585H20.3616C20.7593 29.6585 21.1028 29.3329 21.1028 28.9168V27.542H21.0847Z" fill="#15c39a"/>
<path d="M41.6731 18.1355L23.0006 1.36632C22.4402 0.877894 21.5364 0.877894 20.9942 1.36632L15.3906 6.41336V4.71292C15.3906 4.15214 14.9387 3.69989 14.3783 3.69989H12.4984C11.9381 3.69989 11.4862 4.15214 11.4862 4.71292V9.90468L2.30352 18.1355C1.74317 18.6239 1.90585 19.04 2.64697 19.04H4.40034C5.14146 19.04 5.75604 19.655 5.75604 20.3967V37.5277C5.75604 38.2694 6.37063 38.8844 7.11175 38.8844H9.9316V24.9553C9.9316 18.2983 15.3183 12.8895 21.9883 12.8895C28.6403 12.8895 34.045 18.2802 34.045 24.9553C34.045 31.6124 28.6584 37.0031 21.9883 37.0212C19.5119 37.0212 17.2343 36.0444 17.2343 36.0444L12.8238 38.8844H36.8649C37.606 38.8844 38.2206 38.2694 38.2206 37.5277V20.3786C38.2206 19.637 38.8352 19.0219 39.5763 19.0219H41.3297C42.0708 19.04 42.2154 18.6239 41.6731 18.1355Z" fill="#15c39a"/>
<path d="M49.198 15.992H62.562V12.638H49.198V15.992ZM60.196 5.8V24H63.914V5.8H60.196ZM47.976 5.8V24H51.694V5.8H47.976ZM68.0135 18.02C68.0135 19.2507 68.2995 20.3427 68.8715 21.296C69.4608 22.232 70.2495 22.96 71.2375 23.48C72.2428 24 73.3781 24.26 74.6435 24.26C75.9088 24.26 77.0355 24 78.0235 23.48C79.0288 22.96 79.8175 22.232 80.3895 21.296C80.9788 20.3427 81.2735 19.2507 81.2735 18.02C81.2735 16.772 80.9788 15.68 80.3895 14.744C79.8175 13.808 79.0288 13.08 78.0235 12.56C77.0355 12.04 75.9088 11.78 74.6435 11.78C73.3781 11.78 72.2428 12.04 71.2375 12.56C70.2495 13.08 69.4608 13.808 68.8715 14.744C68.2995 15.68 68.0135 16.772 68.0135 18.02ZM71.4455 18.02C71.4455 17.344 71.5841 16.746 71.8615 16.226C72.1561 15.706 72.5461 15.3073 73.0315 15.03C73.5168 14.7527 74.0541 14.614 74.6435 14.614C75.2328 14.614 75.7701 14.7527 76.2555 15.03C76.7408 15.3073 77.1221 15.706 77.3995 16.226C77.6941 16.746 77.8415 17.344 77.8415 18.02C77.8415 18.696 77.6941 19.294 77.3995 19.814C77.1221 20.3167 76.7408 20.7153 76.2555 21.01C75.7701 21.2873 75.2328 21.426 74.6435 21.426C74.0541 21.426 73.5168 21.2873 73.0315 21.01C72.5461 20.7153 72.1561 20.3167 71.8615 19.814C71.5841 19.294 71.4455 18.696 71.4455 18.02ZM102.78 16.356C102.78 15.3853 102.641 14.562 102.364 13.886C102.104 13.1927 101.697 12.6727 101.142 12.326C100.587 11.962 99.8679 11.78 98.9839 11.78C98.1693 11.78 97.4413 11.9533 96.7999 12.3C96.1759 12.6467 95.6473 13.158 95.2139 13.834C94.9539 13.158 94.5379 12.6467 93.9659 12.3C93.3939 11.9533 92.6659 11.78 91.7819 11.78C90.9846 11.78 90.2999 11.9533 89.7279 12.3C89.1559 12.6467 88.6966 13.1493 88.3499 13.808V12.04H85.0999V24H88.3499V16.72C88.3499 16.2 88.4366 15.758 88.6099 15.394C88.7833 15.0127 89.0259 14.7353 89.3379 14.562C89.6499 14.3713 90.0139 14.276 90.4299 14.276C91.0539 14.276 91.5046 14.484 91.7819 14.9C92.0593 15.2987 92.1979 15.9053 92.1979 16.72V24H95.5519V16.72C95.5519 16.2 95.6386 15.758 95.8119 15.394C95.9853 15.0127 96.2279 14.7353 96.5399 14.562C96.8519 14.3713 97.2159 14.276 97.6319 14.276C98.2559 14.276 98.7066 14.484 98.9839 14.9C99.2613 15.2987 99.3999 15.9053 99.3999 16.72V24H102.78V16.356ZM107.398 3.72V24H110.778V3.72H107.398ZM115.245 7.412C115.245 7.94933 115.444 8.4 115.843 8.764C116.242 9.128 116.718 9.31 117.273 9.31C117.828 9.31 118.296 9.128 118.677 8.764C119.076 8.4 119.275 7.94933 119.275 7.412C119.275 6.85733 119.076 6.40667 118.677 6.06C118.296 5.696 117.828 5.514 117.273 5.514C116.718 5.514 116.242 5.696 115.843 6.06C115.444 6.40667 115.245 6.85733 115.245 7.412ZM115.609 12.04V24H118.885V12.04H115.609ZM124.358 19.866L122.72 21.972C123.17 22.4053 123.673 22.8127 124.228 23.194C124.8 23.558 125.432 23.8527 126.126 24.078C126.836 24.3033 127.616 24.416 128.466 24.416C129.835 24.416 130.91 24.0867 131.69 23.428C132.47 22.752 132.86 21.816 132.86 20.62C132.86 19.892 132.695 19.3027 132.366 18.852C132.036 18.4013 131.594 18.0287 131.04 17.734C130.502 17.422 129.913 17.1447 129.272 16.902C128.752 16.6767 128.284 16.486 127.868 16.33C127.469 16.174 127.157 16.0007 126.932 15.81C126.724 15.602 126.62 15.368 126.62 15.108C126.62 14.8133 126.724 14.5967 126.932 14.458C127.157 14.302 127.46 14.224 127.842 14.224C128.414 14.224 128.994 14.3713 129.584 14.666C130.19 14.9607 130.71 15.342 131.144 15.81L132.626 13.73C132.244 13.3487 131.802 13.0193 131.3 12.742C130.797 12.4473 130.251 12.2133 129.662 12.04C129.072 11.8667 128.44 11.78 127.764 11.78C126.966 11.78 126.238 11.91 125.58 12.17C124.938 12.4127 124.427 12.7853 124.046 13.288C123.664 13.7733 123.474 14.3713 123.474 15.082C123.474 15.8273 123.638 16.4427 123.968 16.928C124.314 17.396 124.748 17.7773 125.268 18.072C125.788 18.3493 126.325 18.592 126.88 18.8C127.469 18.9907 127.954 19.1727 128.336 19.346C128.717 19.5193 129.003 19.7187 129.194 19.944C129.402 20.152 129.506 20.412 129.506 20.724C129.506 21.0707 129.384 21.348 129.142 21.556C128.899 21.7467 128.552 21.842 128.102 21.842C127.755 21.842 127.382 21.7727 126.984 21.634C126.602 21.4953 126.195 21.2873 125.762 21.01C125.328 20.7153 124.86 20.334 124.358 19.866ZM134.951 12.04V14.874H142.335V12.04H134.951ZM137.005 7.88V24H140.255V7.88H137.005ZM145.272 7.412C145.272 7.94933 145.471 8.4 145.87 8.764C146.269 9.128 146.745 9.31 147.3 9.31C147.855 9.31 148.323 9.128 148.704 8.764C149.103 8.4 149.302 7.94933 149.302 7.412C149.302 6.85733 149.103 6.40667 148.704 6.06C148.323 5.696 147.855 5.514 147.3 5.514C146.745 5.514 146.269 5.696 145.87 6.06C145.471 6.40667 145.272 6.85733 145.272 7.412ZM145.636 12.04V24H148.912V12.04H145.636Z" fill="white"/>
<path d="M50.156 37H52.004L52.788 33.808C52.942 33.164 53.068 32.52 53.194 31.792H53.25C53.404 32.52 53.516 33.15 53.67 33.794L54.468 37H56.386L58.136 30.126H56.624L55.798 33.696C55.672 34.354 55.56 34.998 55.434 35.67H55.378C55.224 34.998 55.084 34.354 54.916 33.696L54.006 30.126H52.536L51.64 33.696C51.472 34.34 51.332 34.998 51.206 35.67H51.15C51.024 34.998 50.926 34.354 50.786 33.696L49.96 30.126H48.336L50.156 37ZM62.7427 36.412C63.3027 36.888 63.9047 37.168 64.5067 37.168C66.0327 37.168 67.4467 35.81 67.4467 33.458C67.4467 31.33 66.4527 29.958 64.7447 29.958C63.9887 29.958 63.2467 30.364 62.6727 30.854H62.6167L62.5047 30.126H61.1747V39.716H62.7847V37.56L62.7427 36.412ZM62.7847 35.264V32.058C63.3167 31.54 63.7927 31.288 64.2967 31.288C65.3327 31.288 65.7807 32.1 65.7807 33.472C65.7807 35.026 65.0807 35.838 64.1707 35.838C63.7647 35.838 63.2887 35.684 62.7847 35.264ZM75.3081 37H76.9181V32.8C77.3381 31.764 77.9961 31.386 78.5421 31.386C78.8361 31.386 79.0181 31.428 79.2561 31.498L79.5361 30.098C79.3261 30 79.1021 29.958 78.7521 29.958C78.0241 29.958 77.2961 30.448 76.8061 31.344H76.7501L76.6381 30.126H75.3081V37ZM81.626 33.57C81.626 35.838 83.11 37.168 85.014 37.168C85.882 37.168 86.708 36.86 87.366 36.426L86.82 35.418C86.316 35.74 85.812 35.922 85.224 35.922C84.118 35.922 83.334 35.222 83.194 33.976H87.562C87.604 33.808 87.632 33.528 87.632 33.22C87.632 31.302 86.652 29.958 84.79 29.958C83.18 29.958 81.626 31.33 81.626 33.57ZM83.18 32.954C83.32 31.806 84.02 31.204 84.832 31.204C85.77 31.204 86.232 31.862 86.232 32.954H83.18ZM90.3917 35.152C90.3917 36.356 91.2317 37.168 92.4357 37.168C93.2477 37.168 93.9477 36.762 94.5637 36.244H94.6057L94.7317 37H96.0477V32.926C96.0477 31.008 95.2077 29.958 93.4857 29.958C92.3937 29.958 91.4277 30.378 90.6717 30.854L91.2597 31.932C91.8617 31.568 92.5057 31.26 93.1917 31.26C94.1157 31.26 94.4237 31.876 94.4377 32.604C91.6237 32.912 90.3917 33.682 90.3917 35.152ZM91.9597 35.026C91.9597 34.34 92.5757 33.85 94.4377 33.612V35.152C93.9337 35.628 93.4997 35.908 92.9397 35.908C92.3657 35.908 91.9597 35.642 91.9597 35.026ZM99.6938 35.236C99.6938 36.426 100.114 37.168 101.262 37.168C101.64 37.168 101.92 37.112 102.116 37.028L101.906 35.824C101.78 35.852 101.724 35.852 101.654 35.852C101.486 35.852 101.304 35.712 101.304 35.32V27.116H99.6938V35.236ZM104.727 33.57C104.727 35.838 106.211 37.168 108.115 37.168C108.983 37.168 109.809 36.86 110.467 36.426L109.921 35.418C109.417 35.74 108.913 35.922 108.325 35.922C107.219 35.922 106.435 35.222 106.295 33.976H110.663C110.705 33.808 110.733 33.528 110.733 33.22C110.733 31.302 109.753 29.958 107.891 29.958C106.281 29.958 104.727 31.33 104.727 33.57ZM106.281 32.954C106.421 31.806 107.121 31.204 107.933 31.204C108.871 31.204 109.333 31.862 109.333 32.954H106.281ZM113.264 36.216C113.936 36.762 114.93 37.168 115.868 37.168C117.604 37.168 118.542 36.216 118.542 35.04C118.542 33.752 117.506 33.304 116.568 32.954C115.826 32.688 115.14 32.478 115.14 31.932C115.14 31.498 115.462 31.176 116.148 31.176C116.694 31.176 117.184 31.414 117.66 31.764L118.402 30.784C117.842 30.35 117.072 29.958 116.12 29.958C114.58 29.958 113.614 30.812 113.614 32.016C113.614 33.164 114.636 33.682 115.546 34.018C116.274 34.298 117.016 34.55 117.016 35.124C117.016 35.6 116.666 35.95 115.924 35.95C115.224 35.95 114.636 35.656 114.02 35.18L113.264 36.216ZM121.898 34.676C121.898 36.16 122.486 37.168 124.082 37.168C124.628 37.168 125.104 37.042 125.482 36.916L125.202 35.726C125.006 35.81 124.726 35.88 124.488 35.88C123.83 35.88 123.522 35.488 123.522 34.676V31.4H125.272V30.126H123.522V28.25H122.178L121.982 30.126L120.918 30.196V31.4H121.898V34.676ZM127.899 35.152C127.899 36.356 128.739 37.168 129.943 37.168C130.755 37.168 131.455 36.762 132.071 36.244H132.113L132.239 37H133.555V32.926C133.555 31.008 132.715 29.958 130.993 29.958C129.901 29.958 128.935 30.378 128.179 30.854L128.767 31.932C129.369 31.568 130.013 31.26 130.699 31.26C131.623 31.26 131.931 31.876 131.945 32.604C129.131 32.912 127.899 33.682 127.899 35.152ZM129.467 35.026C129.467 34.34 130.083 33.85 131.945 33.612V35.152C131.441 35.628 131.007 35.908 130.447 35.908C129.873 35.908 129.467 35.642 129.467 35.026ZM137.439 34.676C137.439 36.16 138.027 37.168 139.623 37.168C140.169 37.168 140.645 37.042 141.023 36.916L140.743 35.726C140.547 35.81 140.267 35.88 140.029 35.88C139.371 35.88 139.063 35.488 139.063 34.676V31.4H140.813V30.126H139.063V28.25H137.719L137.523 30.126L136.459 30.196V31.4H137.439V34.676ZM143.355 33.57C143.355 35.838 144.839 37.168 146.743 37.168C147.611 37.168 148.437 36.86 149.095 36.426L148.549 35.418C148.045 35.74 147.541 35.922 146.953 35.922C145.847 35.922 145.063 35.222 144.923 33.976H149.291C149.333 33.808 149.361 33.528 149.361 33.22C149.361 31.302 148.381 29.958 146.519 29.958C144.909 29.958 143.355 31.33 143.355 33.57ZM144.909 32.954C145.049 31.806 145.749 31.204 146.561 31.204C147.499 31.204 147.961 31.862 147.961 32.954H144.909Z" fill="white"/>
</svg>
